<?xml version="1.0" encoding="UTF-8"?>
<!DOCTYPE svg PUBLIC "-//W3C//DTD SVG 1.1//EN" "http://www.w3.org/Graphics/SVG/1.1/DTD/svg11.dtd">
<!-- Creator: CorelDRAW 2021.5 -->
<svg xmlns="http://www.w3.org/2000/svg" xml:space="preserve" width="7.9048mm" height="7.9048mm" version="1.1" style="shape-rendering:geometricPrecision; text-rendering:geometricPrecision; image-rendering:optimizeQuality; fill-rule:evenodd; clip-rule:evenodd"
viewBox="0 0 2.84 2.84"
 xmlns:xlink="http://www.w3.org/1999/xlink"
 xmlns:xodm="http://www.corel.com/coreldraw/odm/2003">
 <defs>
  <style type="text/css">
   <![CDATA[
    .fil2 {fill:none}
    .fil0 {fill:#EA5A5E}
    .fil1 {fill:#9E9E9E}
   ]]>
  </style>
    <clipPath id="id0">
     <path d="M0.23 0.72l2.37 0 0 1.39 -1.72 0 1.05 -1.05 -0.02 -0.06 0.05 -0.05 -0.02 -0.02 -1.18 1.18 -0.09 0 1.2 -1.2 -0.02 -0.02 -0.02 0.02 -0.02 -0.06 -1.25 1.25 -0.35 0 0 -1.39z"/>
    </clipPath>
 </defs>
 <g id="Layer_x0020_1">
  <metadata id="CorelCorpID_0Corel-Layer"/>
  <g id="_2480196052320">
   <g style="clip-path:url(#id0)">
    <image x="0.23" y="0.72" width="2.37" height="1.39" xlink:href="cameraBottom_Images\cameraBottom_ImgID1.png"/>
   </g>
   <polygon class="fil0" points="2.44,0.37 2.42,0.37 2.42,0.4 2.39,0.4 2.39,0.42 2.37,0.42 2.37,0.44 2.35,0.44 2.35,0.47 2.32,0.47 2.32,0.49 2.3,0.49 2.3,0.51 2.28,0.51 2.28,0.54 2.25,0.54 2.25,0.56 2.23,0.56 2.23,0.58 2.21,0.58 2.21,0.6 2.18,0.6 2.18,0.63 2.16,0.63 2.16,0.65 2.14,0.65 2.14,0.67 2.11,0.67 2.11,0.7 2.09,0.7 2.09,0.72 2.07,0.72 2.07,0.74 2.04,0.74 2.04,0.77 2.02,0.77 2.02,0.79 2,0.79 2,0.81 1.98,0.81 1.98,0.84 1.95,0.84 1.95,0.86 1.93,0.86 1.93,0.88 1.91,0.88 1.91,0.91 1.88,0.91 1.88,0.93 1.86,0.93 1.86,0.95 1.84,0.95 1.84,0.98 1.81,0.98 1.81,1 1.79,1 1.79,1.02 1.77,1.02 1.77,1.05 1.74,1.05 1.74,1.07 1.72,1.07 1.72,1.09 1.7,1.09 1.7,1.12 1.67,1.12 1.67,1.14 1.65,1.14 1.65,1.16 1.63,1.16 1.63,1.19 1.6,1.19 1.6,1.21 1.58,1.21 1.58,1.23 1.56,1.23 1.56,1.26 1.53,1.26 1.53,1.28 1.51,1.28 1.51,1.3 1.49,1.3 1.49,1.32 1.46,1.32 1.46,1.35 1.44,1.35 1.44,1.37 1.42,1.37 1.42,1.39 1.39,1.39 1.39,1.42 1.37,1.42 1.37,1.44 1.35,1.44 1.35,1.46 1.32,1.46 1.32,1.49 1.3,1.49 1.3,1.51 1.28,1.51 1.28,1.53 1.26,1.53 1.26,1.56 1.23,1.56 1.23,1.58 1.21,1.58 1.21,1.6 1.19,1.6 1.19,1.63 1.16,1.63 1.16,1.65 1.14,1.65 1.14,1.67 1.12,1.67 1.12,1.7 1.09,1.7 1.09,1.72 1.07,1.72 1.07,1.74 1.05,1.74 1.05,1.77 1.02,1.77 1.02,1.79 1,1.79 1,1.81 0.98,1.81 0.98,1.84 0.95,1.84 0.95,1.86 0.93,1.86 0.93,1.88 0.91,1.88 0.91,1.91 0.88,1.91 0.88,1.93 0.86,1.93 0.86,1.95 0.84,1.95 0.84,1.98 0.81,1.98 0.81,2 0.79,2 0.79,2.02 0.77,2.02 0.77,2.04 0.74,2.04 0.74,2.07 0.72,2.07 0.72,2.09 0.7,2.09 0.7,2.11 0.67,2.11 0.67,2.14 0.65,2.14 0.65,2.16 0.63,2.16 0.63,2.18 0.6,2.18 0.6,2.21 0.58,2.21 0.58,2.23 0.56,2.23 0.56,2.25 0.54,2.25 0.54,2.28 0.51,2.28 0.51,2.3 0.49,2.3 0.49,2.32 0.47,2.32 0.47,2.35 0.44,2.35 0.44,2.37 0.42,2.37 0.42,2.39 0.4,2.39 0.4,2.42 0.37,2.42 0.37,2.49 0.42,2.49 0.42,2.46 0.44,2.46 0.44,2.44 0.47,2.44 0.47,2.42 0.49,2.42 0.49,2.39 0.51,2.39 0.51,2.37 0.54,2.37 0.54,2.35 0.56,2.35 0.56,2.32 0.58,2.32 0.58,2.3 0.6,2.3 0.6,2.28 0.63,2.28 0.63,2.25 0.65,2.25 0.65,2.23 0.67,2.23 0.67,2.21 0.7,2.21 0.7,2.18 0.72,2.18 0.72,2.16 0.74,2.16 0.74,2.14 0.77,2.14 0.77,2.11 0.79,2.11 0.79,2.09 0.81,2.09 0.81,2.07 0.84,2.07 0.84,2.04 0.86,2.04 0.86,2.02 0.88,2.02 0.88,2 0.91,2 0.91,1.98 0.93,1.98 0.93,1.95 0.95,1.95 0.95,1.93 0.98,1.93 0.98,1.91 1,1.91 1,1.88 1.02,1.88 1.02,1.86 1.05,1.86 1.05,1.84 1.07,1.84 1.07,1.81 1.09,1.81 1.09,1.79 1.12,1.79 1.12,1.77 1.14,1.77 1.14,1.74 1.16,1.74 1.16,1.72 1.19,1.72 1.19,1.7 1.21,1.7 1.21,1.67 1.23,1.67 1.23,1.65 1.26,1.65 1.26,1.63 1.28,1.63 1.28,1.6 1.3,1.6 1.3,1.58 1.32,1.58 1.32,1.56 1.35,1.56 1.35,1.53 1.37,1.53 1.37,1.51 1.39,1.51 1.39,1.49 1.42,1.49 1.42,1.46 1.44,1.46 1.44,1.44 1.46,1.44 1.46,1.42 1.49,1.42 1.49,1.39 1.51,1.39 1.51,1.37 1.53,1.37 1.53,1.35 1.56,1.35 1.56,1.32 1.58,1.32 1.58,1.3 1.6,1.3 1.6,1.28 1.63,1.28 1.63,1.26 1.65,1.26 1.65,1.23 1.67,1.23 1.67,1.21 1.7,1.21 1.7,1.19 1.72,1.19 1.72,1.16 1.74,1.16 1.74,1.14 1.77,1.14 1.77,1.12 1.79,1.12 1.79,1.09 1.81,1.09 1.81,1.07 1.84,1.07 1.84,1.05 1.86,1.05 1.86,1.02 1.88,1.02 1.88,1 1.91,1 1.91,0.98 1.93,0.98 1.93,0.95 1.95,0.95 1.95,0.93 1.98,0.93 1.98,0.91 2,0.91 2,0.88 2.02,0.88 2.02,0.86 2.04,0.86 2.04,0.84 2.07,0.84 2.07,0.81 2.09,0.81 2.09,0.79 2.11,0.79 2.11,0.77 2.14,0.77 2.14,0.74 2.16,0.74 2.16,0.72 2.18,0.72 2.18,0.7 2.21,0.7 2.21,0.67 2.23,0.67 2.23,0.65 2.25,0.65 2.25,0.63 2.28,0.63 2.28,0.6 2.3,0.6 2.3,0.58 2.32,0.58 2.32,0.56 2.35,0.56 2.35,0.54 2.37,0.54 2.37,0.51 2.39,0.51 2.39,0.49 2.42,0.49 2.42,0.47 2.44,0.47 2.44,0.44 2.46,0.44 2.46,0.42 2.49,0.42 2.49,0.35 2.44,0.35 "/>
   <polygon class="fil1" points="0.23,0.89 0.45,0.72 1.61,0.72 1.76,0.94 0.57,2.11 0.23,1.84 "/>
   <polygon class="fil1" points="1.91,1.19 1.92,1.94 1.74,2.11 0.88,2.11 1.87,1.13 "/>
   <polygon class="fil1" points="2.07,1.1 2.45,0.85 2.6,0.85 2.6,2.01 2.48,2.02 2.07,1.7 "/>
  </g>
  <rect class="fil2" width="2.84" height="2.84"/>
 </g>
</svg>
