<svg xmlns="http://www.w3.org/2000/svg" version="1.1" xmlns:xlink="http://www.w3.org/1999/xlink" xmlns:svgjs="http://svgjs.dev/svgjs" width="2000" height="2000" preserveAspectRatio="none" viewBox="0 0 2000 2000"><g mask="url(&quot;#SvgjsMask1025&quot;)" fill="none"><path d="M70.25 1321.51L135.2 1359.01L135.2 1434.01L70.25 1471.51L5.3 1434.01L5.3 1359.01zM135.2 1659.01L200.16 1696.51L200.16 1771.51L135.2 1809.01L70.25 1771.51L70.25 1696.51zM265.11 84.01L330.06 121.51L330.06 196.51L265.11 234.01L200.16 196.51L200.16 121.51zM265.11 984.01L330.06 1021.51L330.06 1096.51L265.11 1134.01L200.16 1096.51L200.16 1021.51zM265.11 1209.01L330.06 1246.51L330.06 1321.51L265.11 1359.01L200.16 1321.51L200.16 1246.51zM200.16 1321.51L265.11 1359.01L265.11 1434.01L200.16 1471.51L135.2 1434.01L135.2 1359.01zM265.11 1434.01L330.06 1471.51L330.06 1546.51L265.11 1584.01L200.16 1546.51L200.16 1471.51zM265.11 1659.01L330.06 1696.51L330.06 1771.51L265.11 1809.01L200.16 1771.51L200.16 1696.51zM330.06 196.51L395.02 234.01L395.02 309.01L330.06 346.51L265.11 309.01L265.11 234.01zM395.02 309.01L459.97 346.51L459.97 421.51L395.02 459.01L330.06 421.51L330.06 346.51zM330.06 1096.51L395.02 1134.01L395.02 1209.01L330.06 1246.51L265.11 1209.01L265.11 1134.01zM459.97 -28.49L524.93 9.01L524.93 84.01L459.97 121.51L395.02 84.01L395.02 9.01zM524.93 84.01L589.88 121.51L589.88 196.51L524.93 234.01L459.97 196.51L459.97 121.51zM524.93 309.01L589.88 346.51L589.88 421.51L524.93 459.01L459.97 421.51L459.97 346.51zM524.93 759.01L589.88 796.51L589.88 871.51L524.93 909.01L459.97 871.51L459.97 796.51zM524.93 984.01L589.88 1021.51L589.88 1096.51L524.93 1134.01L459.97 1096.51L459.97 1021.51zM524.93 1434.01L589.88 1471.51L589.88 1546.51L524.93 1584.01L459.97 1546.51L459.97 1471.51zM524.93 1884.01L589.88 1921.51L589.88 1996.51L524.93 2034.01L459.97 1996.51L459.97 1921.51zM654.83 534.01L719.79 571.51L719.79 646.51L654.83 684.01L589.88 646.51L589.88 571.51zM654.83 759.01L719.79 796.51L719.79 871.51L654.83 909.01L589.88 871.51L589.88 796.51zM654.83 984.01L719.79 1021.51L719.79 1096.51L654.83 1134.01L589.88 1096.51L589.88 1021.51zM589.88 1096.51L654.83 1134.01L654.83 1209.01L589.88 1246.51L524.93 1209.01L524.93 1134.01zM654.83 1434.01L719.79 1471.51L719.79 1546.51L654.83 1584.01L589.88 1546.51L589.88 1471.51zM654.83 1659.01L719.79 1696.51L719.79 1771.51L654.83 1809.01L589.88 1771.51L589.88 1696.51zM719.79 646.51L784.74 684.01L784.74 759.01L719.79 796.51L654.83 759.01L654.83 684.01zM719.79 1096.51L784.74 1134.01L784.74 1209.01L719.79 1246.51L654.83 1209.01L654.83 1134.01zM784.74 1209.01L849.7 1246.51L849.7 1321.51L784.74 1359.01L719.79 1321.51L719.79 1246.51zM784.74 1884.01L849.7 1921.51L849.7 1996.51L784.74 2034.01L719.79 1996.51L719.79 1921.51zM719.79 1996.51L784.74 2034.01L784.74 2109.01L719.79 2146.51L654.83 2109.01L654.83 2034.01zM914.65 984.01L979.6 1021.51L979.6 1096.51L914.65 1134.01L849.69 1096.51L849.69 1021.51zM849.69 1321.51L914.65 1359.01L914.65 1434.01L849.69 1471.51L784.74 1434.01L784.74 1359.01zM914.65 1434.01L979.6 1471.51L979.6 1546.51L914.65 1584.01L849.69 1546.51L849.69 1471.51zM914.65 1659.01L979.6 1696.51L979.6 1771.51L914.65 1809.01L849.69 1771.51L849.69 1696.51zM914.65 1884.01L979.6 1921.51L979.6 1996.51L914.65 2034.01L849.69 1996.51L849.69 1921.51zM1044.56 84.01L1109.51 121.51L1109.51 196.51L1044.56 234.01L979.6 196.51L979.6 121.51zM1044.56 309.01L1109.51 346.51L1109.51 421.51L1044.56 459.01L979.6 421.51L979.6 346.51zM979.6 871.51L1044.56 909.01L1044.56 984.01L979.6 1021.51L914.65 984.01L914.65 909.01zM979.6 1096.51L1044.56 1134.01L1044.56 1209.01L979.6 1246.51L914.65 1209.01L914.65 1134.01zM1044.56 1434.01L1109.51 1471.51L1109.51 1546.51L1044.56 1584.01L979.6 1546.51L979.6 1471.51zM1109.51 646.51L1174.46 684.01L1174.46 759.01L1109.51 796.51L1044.56 759.01L1044.56 684.01zM1109.51 871.51L1174.46 909.01L1174.46 984.01L1109.51 1021.51L1044.56 984.01L1044.56 909.01zM1109.51 1096.51L1174.46 1134.01L1174.46 1209.01L1109.51 1246.51L1044.56 1209.01L1044.56 1134.01zM1174.46 1434.01L1239.42 1471.51L1239.42 1546.51L1174.46 1584.01L1109.51 1546.51L1109.51 1471.51zM1109.51 1546.51L1174.46 1584.01L1174.46 1659.01L1109.51 1696.51L1044.56 1659.01L1044.56 1584.01zM1174.46 1884.01L1239.42 1921.51L1239.42 1996.51L1174.46 2034.01L1109.51 1996.51L1109.51 1921.51zM1239.42 -28.49L1304.37 9.01L1304.37 84.01L1239.42 121.51L1174.46 84.01L1174.46 9.01zM1304.37 84.01L1369.32 121.51L1369.32 196.51L1304.37 234.01L1239.42 196.51L1239.42 121.51zM1239.42 421.51L1304.37 459.01L1304.37 534.01L1239.42 571.51L1174.46 534.01L1174.46 459.01zM1304.37 759.01L1369.32 796.51L1369.32 871.51L1304.37 909.01L1239.42 871.51L1239.42 796.51zM1239.42 871.51L1304.37 909.01L1304.37 984.01L1239.42 1021.51L1174.46 984.01L1174.46 909.01zM1304.37 984.01L1369.32 1021.51L1369.32 1096.51L1304.37 1134.01L1239.42 1096.51L1239.42 1021.51zM1304.37 1209.01L1369.32 1246.51L1369.32 1321.51L1304.37 1359.01L1239.42 1321.51L1239.42 1246.51zM1239.42 1546.51L1304.37 1584.01L1304.37 1659.01L1239.42 1696.51L1174.46 1659.01L1174.46 1584.01zM1239.42 1771.51L1304.37 1809.01L1304.37 1884.01L1239.42 1921.51L1174.46 1884.01L1174.46 1809.01zM1369.33 -28.49L1434.28 9.01L1434.28 84.01L1369.33 121.51L1304.37 84.01L1304.37 9.01zM1434.28 309.01L1499.23 346.51L1499.23 421.51L1434.28 459.01L1369.33 421.51L1369.33 346.51zM1369.33 421.51L1434.28 459.01L1434.28 534.01L1369.33 571.51L1304.37 534.01L1304.37 459.01zM1369.33 646.51L1434.28 684.01L1434.28 759.01L1369.33 796.51L1304.37 759.01L1304.37 684.01zM1434.28 759.01L1499.23 796.51L1499.23 871.51L1434.28 909.01L1369.33 871.51L1369.33 796.51zM1369.33 871.51L1434.28 909.01L1434.28 984.01L1369.33 1021.51L1304.37 984.01L1304.37 909.01zM1499.23 196.51L1564.19 234.01L1564.19 309.01L1499.23 346.51L1434.28 309.01L1434.28 234.01zM1564.19 759.01L1629.14 796.51L1629.14 871.51L1564.19 909.01L1499.23 871.51L1499.23 796.51zM1499.23 1096.51L1564.19 1134.01L1564.19 1209.01L1499.23 1246.51L1434.28 1209.01L1434.28 1134.01zM1564.19 1209.01L1629.14 1246.51L1629.14 1321.51L1564.19 1359.01L1499.23 1321.51L1499.23 1246.51zM1499.23 1771.51L1564.19 1809.01L1564.19 1884.01L1499.23 1921.51L1434.28 1884.01L1434.28 1809.01zM1629.14 196.51L1694.09 234.01L1694.09 309.01L1629.14 346.51L1564.19 309.01L1564.19 234.01zM1629.14 646.51L1694.09 684.01L1694.09 759.01L1629.14 796.51L1564.19 759.01L1564.19 684.01zM1694.09 759.01L1759.05 796.51L1759.05 871.51L1694.09 909.01L1629.14 871.51L1629.14 796.51zM1629.14 871.51L1694.09 909.01L1694.09 984.01L1629.14 1021.51L1564.19 984.01L1564.19 909.01zM1694.09 1209.01L1759.05 1246.51L1759.05 1321.51L1694.09 1359.01L1629.14 1321.51L1629.14 1246.51zM1694.09 1434.01L1759.05 1471.51L1759.05 1546.51L1694.09 1584.01L1629.14 1546.51L1629.14 1471.51zM1629.14 1546.51L1694.09 1584.01L1694.09 1659.01L1629.14 1696.51L1564.19 1659.01L1564.19 1584.01zM1629.14 1771.51L1694.09 1809.01L1694.09 1884.01L1629.14 1921.51L1564.19 1884.01L1564.19 1809.01zM1759.05 196.51L1824 234.01L1824 309.01L1759.05 346.51L1694.09 309.01L1694.09 234.01zM1824 309.01L1888.95 346.51L1888.95 421.51L1824 459.01L1759.05 421.51L1759.05 346.51zM1759.05 1096.51L1824 1134.01L1824 1209.01L1759.05 1246.51L1694.09 1209.01L1694.09 1134.01zM1824 1209.01L1888.95 1246.51L1888.95 1321.51L1824 1359.01L1759.05 1321.51L1759.05 1246.51zM1759.05 1771.51L1824 1809.01L1824 1884.01L1759.05 1921.51L1694.09 1884.01L1694.09 1809.01zM1824 1884.01L1888.95 1921.51L1888.95 1996.51L1824 2034.01L1759.05 1996.51L1759.05 1921.51zM1888.95 646.51L1953.91 684.01L1953.91 759.01L1888.95 796.51L1824 759.01L1824 684.01zM1888.95 871.51L1953.91 909.01L1953.91 984.01L1888.95 1021.51L1824 984.01L1824 909.01zM1953.91 984.01L2018.86 1021.51L2018.86 1096.51L1953.91 1134.01L1888.95 1096.51L1888.95 1021.51zM1888.95 1546.51L1953.91 1584.01L1953.91 1659.01L1888.95 1696.51L1824 1659.01L1824 1584.01zM1953.91 1659.01L2018.86 1696.51L2018.86 1771.51L1953.91 1809.01L1888.95 1771.51L1888.95 1696.51zM1888.95 1996.51L1953.91 2034.01L1953.91 2109.01L1888.95 2146.51L1824 2109.01L1824 2034.01zM2018.86 421.51L2083.82 459.01L2083.82 534.01L2018.86 571.51L1953.91 534.01L1953.91 459.01zM2018.86 1546.51L2083.82 1584.01L2083.82 1659.01L2018.86 1696.51L1953.91 1659.01L1953.91 1584.01zM2083.82 1884.01L2148.77 1921.51L2148.77 1996.51L2083.82 2034.01L2018.86 1996.51L2018.86 1921.51z" stroke="rgba(144, 224, 239, 1)" stroke-width="2"></path><path d="M62.75 1321.51 a7.5 7.5 0 1 0 15 0 a7.5 7.5 0 1 0 -15 0zM127.7 1359.01 a7.5 7.5 0 1 0 15 0 a7.5 7.5 0 1 0 -15 0zM127.7 1434.01 a7.5 7.5 0 1 0 15 0 a7.5 7.5 0 1 0 -15 0zM62.75 1471.51 a7.5 7.5 0 1 0 15 0 a7.5 7.5 0 1 0 -15 0zM-2.2 1434.01 a7.5 7.5 0 1 0 15 0 a7.5 7.5 0 1 0 -15 0zM-2.2 1359.01 a7.5 7.5 0 1 0 15 0 a7.5 7.5 0 1 0 -15 0zM127.7 1659.01 a7.5 7.5 0 1 0 15 0 a7.5 7.5 0 1 0 -15 0zM192.66 1696.51 a7.5 7.5 0 1 0 15 0 a7.5 7.5 0 1 0 -15 0zM192.66 1771.51 a7.5 7.5 0 1 0 15 0 a7.5 7.5 0 1 0 -15 0zM127.7 1809.01 a7.5 7.5 0 1 0 15 0 a7.5 7.5 0 1 0 -15 0zM62.75 1771.51 a7.5 7.5 0 1 0 15 0 a7.5 7.5 0 1 0 -15 0zM62.75 1696.51 a7.5 7.5 0 1 0 15 0 a7.5 7.5 0 1 0 -15 0zM257.61 84.01 a7.5 7.5 0 1 0 15 0 a7.5 7.5 0 1 0 -15 0zM322.56 121.51 a7.5 7.5 0 1 0 15 0 a7.5 7.5 0 1 0 -15 0zM322.56 196.51 a7.5 7.5 0 1 0 15 0 a7.5 7.5 0 1 0 -15 0zM257.61 234.01 a7.5 7.5 0 1 0 15 0 a7.5 7.5 0 1 0 -15 0zM192.66 196.51 a7.5 7.5 0 1 0 15 0 a7.5 7.5 0 1 0 -15 0zM192.66 121.51 a7.5 7.5 0 1 0 15 0 a7.5 7.5 0 1 0 -15 0zM257.61 984.01 a7.5 7.5 0 1 0 15 0 a7.5 7.5 0 1 0 -15 0zM322.56 1021.51 a7.5 7.5 0 1 0 15 0 a7.5 7.5 0 1 0 -15 0zM322.56 1096.51 a7.5 7.5 0 1 0 15 0 a7.5 7.5 0 1 0 -15 0zM257.61 1134.01 a7.5 7.5 0 1 0 15 0 a7.5 7.5 0 1 0 -15 0zM192.66 1096.51 a7.5 7.5 0 1 0 15 0 a7.5 7.5 0 1 0 -15 0zM192.66 1021.51 a7.5 7.5 0 1 0 15 0 a7.5 7.5 0 1 0 -15 0zM257.61 1209.01 a7.5 7.5 0 1 0 15 0 a7.5 7.5 0 1 0 -15 0zM322.56 1246.51 a7.5 7.5 0 1 0 15 0 a7.5 7.5 0 1 0 -15 0zM322.56 1321.51 a7.5 7.5 0 1 0 15 0 a7.5 7.5 0 1 0 -15 0zM257.61 1359.01 a7.5 7.5 0 1 0 15 0 a7.5 7.5 0 1 0 -15 0zM192.66 1321.51 a7.5 7.5 0 1 0 15 0 a7.5 7.5 0 1 0 -15 0zM192.66 1246.51 a7.5 7.5 0 1 0 15 0 a7.5 7.5 0 1 0 -15 0zM257.61 1434.01 a7.5 7.5 0 1 0 15 0 a7.5 7.5 0 1 0 -15 0zM192.66 1471.51 a7.5 7.5 0 1 0 15 0 a7.5 7.5 0 1 0 -15 0zM322.56 1471.51 a7.5 7.5 0 1 0 15 0 a7.5 7.5 0 1 0 -15 0zM322.56 1546.51 a7.5 7.5 0 1 0 15 0 a7.5 7.5 0 1 0 -15 0zM257.61 1584.01 a7.5 7.5 0 1 0 15 0 a7.5 7.5 0 1 0 -15 0zM192.66 1546.51 a7.5 7.5 0 1 0 15 0 a7.5 7.5 0 1 0 -15 0zM257.61 1659.01 a7.5 7.5 0 1 0 15 0 a7.5 7.5 0 1 0 -15 0zM322.56 1696.51 a7.5 7.5 0 1 0 15 0 a7.5 7.5 0 1 0 -15 0zM322.56 1771.51 a7.5 7.5 0 1 0 15 0 a7.5 7.5 0 1 0 -15 0zM257.61 1809.01 a7.5 7.5 0 1 0 15 0 a7.5 7.5 0 1 0 -15 0zM387.52 234.01 a7.5 7.5 0 1 0 15 0 a7.5 7.5 0 1 0 -15 0zM387.52 309.01 a7.5 7.5 0 1 0 15 0 a7.5 7.5 0 1 0 -15 0zM322.56 346.51 a7.5 7.5 0 1 0 15 0 a7.5 7.5 0 1 0 -15 0zM257.61 309.01 a7.5 7.5 0 1 0 15 0 a7.5 7.5 0 1 0 -15 0zM452.47 346.51 a7.5 7.5 0 1 0 15 0 a7.5 7.5 0 1 0 -15 0zM452.47 421.51 a7.5 7.5 0 1 0 15 0 a7.5 7.5 0 1 0 -15 0zM387.52 459.01 a7.5 7.5 0 1 0 15 0 a7.5 7.5 0 1 0 -15 0zM322.56 421.51 a7.5 7.5 0 1 0 15 0 a7.5 7.5 0 1 0 -15 0zM387.52 1134.01 a7.5 7.5 0 1 0 15 0 a7.5 7.5 0 1 0 -15 0zM387.52 1209.01 a7.5 7.5 0 1 0 15 0 a7.5 7.5 0 1 0 -15 0zM452.47 -28.49 a7.5 7.5 0 1 0 15 0 a7.5 7.5 0 1 0 -15 0zM517.43 9.01 a7.5 7.5 0 1 0 15 0 a7.5 7.5 0 1 0 -15 0zM517.43 84.01 a7.5 7.5 0 1 0 15 0 a7.5 7.5 0 1 0 -15 0zM452.47 121.51 a7.5 7.5 0 1 0 15 0 a7.5 7.5 0 1 0 -15 0zM387.52 84.01 a7.5 7.5 0 1 0 15 0 a7.5 7.5 0 1 0 -15 0zM387.52 9.01 a7.5 7.5 0 1 0 15 0 a7.5 7.5 0 1 0 -15 0zM582.38 121.51 a7.5 7.5 0 1 0 15 0 a7.5 7.5 0 1 0 -15 0zM582.38 196.51 a7.5 7.5 0 1 0 15 0 a7.5 7.5 0 1 0 -15 0zM517.43 234.01 a7.5 7.5 0 1 0 15 0 a7.5 7.5 0 1 0 -15 0zM452.47 196.51 a7.5 7.5 0 1 0 15 0 a7.5 7.5 0 1 0 -15 0zM517.43 309.01 a7.5 7.5 0 1 0 15 0 a7.5 7.5 0 1 0 -15 0zM582.38 346.51 a7.5 7.5 0 1 0 15 0 a7.5 7.5 0 1 0 -15 0zM582.38 421.51 a7.5 7.5 0 1 0 15 0 a7.5 7.5 0 1 0 -15 0zM517.43 459.01 a7.5 7.5 0 1 0 15 0 a7.5 7.5 0 1 0 -15 0zM517.43 759.01 a7.5 7.5 0 1 0 15 0 a7.5 7.5 0 1 0 -15 0zM582.38 796.51 a7.5 7.5 0 1 0 15 0 a7.5 7.5 0 1 0 -15 0zM582.38 871.51 a7.5 7.5 0 1 0 15 0 a7.5 7.5 0 1 0 -15 0zM517.43 909.01 a7.5 7.5 0 1 0 15 0 a7.5 7.5 0 1 0 -15 0zM452.47 871.51 a7.5 7.5 0 1 0 15 0 a7.5 7.5 0 1 0 -15 0zM452.47 796.51 a7.5 7.5 0 1 0 15 0 a7.5 7.5 0 1 0 -15 0zM517.43 984.01 a7.5 7.5 0 1 0 15 0 a7.5 7.5 0 1 0 -15 0zM582.38 1021.51 a7.5 7.5 0 1 0 15 0 a7.5 7.5 0 1 0 -15 0zM582.38 1096.51 a7.5 7.5 0 1 0 15 0 a7.5 7.5 0 1 0 -15 0zM517.43 1134.01 a7.5 7.5 0 1 0 15 0 a7.5 7.5 0 1 0 -15 0zM452.47 1096.51 a7.5 7.5 0 1 0 15 0 a7.5 7.5 0 1 0 -15 0zM452.47 1021.51 a7.5 7.5 0 1 0 15 0 a7.5 7.5 0 1 0 -15 0zM517.43 1434.01 a7.5 7.5 0 1 0 15 0 a7.5 7.5 0 1 0 -15 0zM582.38 1471.51 a7.5 7.5 0 1 0 15 0 a7.5 7.5 0 1 0 -15 0zM582.38 1546.51 a7.5 7.5 0 1 0 15 0 a7.5 7.5 0 1 0 -15 0zM517.43 1584.01 a7.5 7.5 0 1 0 15 0 a7.5 7.5 0 1 0 -15 0zM452.47 1546.51 a7.5 7.5 0 1 0 15 0 a7.5 7.5 0 1 0 -15 0zM452.47 1471.51 a7.5 7.5 0 1 0 15 0 a7.5 7.5 0 1 0 -15 0zM517.43 1884.01 a7.5 7.5 0 1 0 15 0 a7.5 7.5 0 1 0 -15 0zM582.38 1921.51 a7.5 7.5 0 1 0 15 0 a7.5 7.5 0 1 0 -15 0zM582.38 1996.51 a7.5 7.5 0 1 0 15 0 a7.5 7.5 0 1 0 -15 0zM517.43 2034.01 a7.5 7.5 0 1 0 15 0 a7.5 7.5 0 1 0 -15 0zM452.47 1996.51 a7.5 7.5 0 1 0 15 0 a7.5 7.5 0 1 0 -15 0zM452.47 1921.51 a7.5 7.5 0 1 0 15 0 a7.5 7.5 0 1 0 -15 0zM647.33 534.01 a7.5 7.5 0 1 0 15 0 a7.5 7.5 0 1 0 -15 0zM712.29 571.51 a7.5 7.5 0 1 0 15 0 a7.5 7.5 0 1 0 -15 0zM712.29 646.51 a7.5 7.5 0 1 0 15 0 a7.5 7.5 0 1 0 -15 0zM647.33 684.01 a7.5 7.5 0 1 0 15 0 a7.5 7.5 0 1 0 -15 0zM582.38 646.51 a7.5 7.5 0 1 0 15 0 a7.5 7.5 0 1 0 -15 0zM582.38 571.51 a7.5 7.5 0 1 0 15 0 a7.5 7.5 0 1 0 -15 0zM647.33 759.01 a7.5 7.5 0 1 0 15 0 a7.5 7.5 0 1 0 -15 0zM712.29 796.51 a7.5 7.5 0 1 0 15 0 a7.5 7.5 0 1 0 -15 0zM712.29 871.51 a7.5 7.5 0 1 0 15 0 a7.5 7.5 0 1 0 -15 0zM647.33 909.01 a7.5 7.5 0 1 0 15 0 a7.5 7.5 0 1 0 -15 0zM647.33 984.01 a7.5 7.5 0 1 0 15 0 a7.5 7.5 0 1 0 -15 0zM712.29 1021.51 a7.5 7.5 0 1 0 15 0 a7.5 7.5 0 1 0 -15 0zM712.29 1096.51 a7.5 7.5 0 1 0 15 0 a7.5 7.5 0 1 0 -15 0zM647.33 1134.01 a7.5 7.5 0 1 0 15 0 a7.5 7.5 0 1 0 -15 0zM647.33 1209.01 a7.5 7.5 0 1 0 15 0 a7.5 7.5 0 1 0 -15 0zM582.38 1246.51 a7.5 7.5 0 1 0 15 0 a7.5 7.5 0 1 0 -15 0zM517.43 1209.01 a7.5 7.5 0 1 0 15 0 a7.5 7.5 0 1 0 -15 0zM647.33 1434.01 a7.5 7.5 0 1 0 15 0 a7.5 7.5 0 1 0 -15 0zM712.29 1471.51 a7.5 7.5 0 1 0 15 0 a7.5 7.5 0 1 0 -15 0zM712.29 1546.51 a7.5 7.5 0 1 0 15 0 a7.5 7.5 0 1 0 -15 0zM647.33 1584.01 a7.5 7.5 0 1 0 15 0 a7.5 7.5 0 1 0 -15 0zM647.33 1659.01 a7.5 7.5 0 1 0 15 0 a7.5 7.5 0 1 0 -15 0zM712.29 1696.51 a7.5 7.5 0 1 0 15 0 a7.5 7.5 0 1 0 -15 0zM712.29 1771.51 a7.5 7.5 0 1 0 15 0 a7.5 7.5 0 1 0 -15 0zM647.33 1809.01 a7.5 7.5 0 1 0 15 0 a7.5 7.5 0 1 0 -15 0zM582.38 1771.51 a7.5 7.5 0 1 0 15 0 a7.5 7.5 0 1 0 -15 0zM582.38 1696.51 a7.5 7.5 0 1 0 15 0 a7.5 7.5 0 1 0 -15 0zM777.24 684.01 a7.5 7.5 0 1 0 15 0 a7.5 7.5 0 1 0 -15 0zM777.24 759.01 a7.5 7.5 0 1 0 15 0 a7.5 7.5 0 1 0 -15 0zM777.24 1134.01 a7.5 7.5 0 1 0 15 0 a7.5 7.5 0 1 0 -15 0zM777.24 1209.01 a7.5 7.5 0 1 0 15 0 a7.5 7.5 0 1 0 -15 0zM712.29 1246.51 a7.5 7.5 0 1 0 15 0 a7.5 7.5 0 1 0 -15 0zM842.2 1246.51 a7.5 7.5 0 1 0 15 0 a7.5 7.5 0 1 0 -15 0zM842.2 1321.51 a7.5 7.5 0 1 0 15 0 a7.5 7.5 0 1 0 -15 0zM777.24 1359.01 a7.5 7.5 0 1 0 15 0 a7.5 7.5 0 1 0 -15 0zM712.29 1321.51 a7.5 7.5 0 1 0 15 0 a7.5 7.5 0 1 0 -15 0zM777.24 1884.01 a7.5 7.5 0 1 0 15 0 a7.5 7.5 0 1 0 -15 0zM842.2 1921.51 a7.5 7.5 0 1 0 15 0 a7.5 7.5 0 1 0 -15 0zM842.2 1996.51 a7.5 7.5 0 1 0 15 0 a7.5 7.5 0 1 0 -15 0zM777.24 2034.01 a7.5 7.5 0 1 0 15 0 a7.5 7.5 0 1 0 -15 0zM712.29 1996.51 a7.5 7.5 0 1 0 15 0 a7.5 7.5 0 1 0 -15 0zM712.29 1921.51 a7.5 7.5 0 1 0 15 0 a7.5 7.5 0 1 0 -15 0zM777.24 2109.01 a7.5 7.5 0 1 0 15 0 a7.5 7.5 0 1 0 -15 0zM712.29 2146.51 a7.5 7.5 0 1 0 15 0 a7.5 7.5 0 1 0 -15 0zM647.33 2109.01 a7.5 7.5 0 1 0 15 0 a7.5 7.5 0 1 0 -15 0zM647.33 2034.01 a7.5 7.5 0 1 0 15 0 a7.5 7.5 0 1 0 -15 0zM907.15 984.01 a7.5 7.5 0 1 0 15 0 a7.5 7.5 0 1 0 -15 0zM972.1 1021.51 a7.5 7.5 0 1 0 15 0 a7.5 7.5 0 1 0 -15 0zM972.1 1096.51 a7.5 7.5 0 1 0 15 0 a7.5 7.5 0 1 0 -15 0zM907.15 1134.01 a7.5 7.5 0 1 0 15 0 a7.5 7.5 0 1 0 -15 0zM842.19 1096.51 a7.5 7.5 0 1 0 15 0 a7.5 7.5 0 1 0 -15 0zM842.19 1021.51 a7.5 7.5 0 1 0 15 0 a7.5 7.5 0 1 0 -15 0zM842.19 1321.51 a7.5 7.5 0 1 0 15 0 a7.5 7.5 0 1 0 -15 0zM907.15 1359.01 a7.5 7.5 0 1 0 15 0 a7.5 7.5 0 1 0 -15 0zM907.15 1434.01 a7.5 7.5 0 1 0 15 0 a7.5 7.5 0 1 0 -15 0zM842.19 1471.51 a7.5 7.5 0 1 0 15 0 a7.5 7.5 0 1 0 -15 0zM777.24 1434.01 a7.5 7.5 0 1 0 15 0 a7.5 7.5 0 1 0 -15 0zM972.1 1471.51 a7.5 7.5 0 1 0 15 0 a7.5 7.5 0 1 0 -15 0zM972.1 1546.51 a7.5 7.5 0 1 0 15 0 a7.5 7.5 0 1 0 -15 0zM907.15 1584.01 a7.5 7.5 0 1 0 15 0 a7.5 7.5 0 1 0 -15 0zM842.19 1546.51 a7.5 7.5 0 1 0 15 0 a7.5 7.5 0 1 0 -15 0zM907.15 1659.01 a7.5 7.5 0 1 0 15 0 a7.5 7.5 0 1 0 -15 0zM972.1 1696.51 a7.5 7.5 0 1 0 15 0 a7.5 7.5 0 1 0 -15 0zM972.1 1771.51 a7.5 7.5 0 1 0 15 0 a7.5 7.5 0 1 0 -15 0zM907.15 1809.01 a7.5 7.5 0 1 0 15 0 a7.5 7.5 0 1 0 -15 0zM842.19 1771.51 a7.5 7.5 0 1 0 15 0 a7.5 7.5 0 1 0 -15 0zM842.19 1696.51 a7.5 7.5 0 1 0 15 0 a7.5 7.5 0 1 0 -15 0zM907.15 1884.01 a7.5 7.5 0 1 0 15 0 a7.5 7.5 0 1 0 -15 0zM972.1 1921.51 a7.5 7.5 0 1 0 15 0 a7.5 7.5 0 1 0 -15 0zM972.1 1996.51 a7.5 7.5 0 1 0 15 0 a7.5 7.5 0 1 0 -15 0zM907.15 2034.01 a7.5 7.5 0 1 0 15 0 a7.5 7.5 0 1 0 -15 0zM842.19 1996.51 a7.5 7.5 0 1 0 15 0 a7.5 7.5 0 1 0 -15 0zM842.19 1921.51 a7.5 7.5 0 1 0 15 0 a7.5 7.5 0 1 0 -15 0zM1037.06 84.01 a7.5 7.5 0 1 0 15 0 a7.5 7.5 0 1 0 -15 0zM1102.01 121.51 a7.5 7.5 0 1 0 15 0 a7.5 7.5 0 1 0 -15 0zM1102.01 196.51 a7.5 7.5 0 1 0 15 0 a7.5 7.5 0 1 0 -15 0zM1037.06 234.01 a7.5 7.5 0 1 0 15 0 a7.5 7.5 0 1 0 -15 0zM972.1 196.51 a7.5 7.5 0 1 0 15 0 a7.5 7.5 0 1 0 -15 0zM972.1 121.51 a7.5 7.5 0 1 0 15 0 a7.5 7.5 0 1 0 -15 0zM1037.06 309.01 a7.5 7.5 0 1 0 15 0 a7.5 7.5 0 1 0 -15 0zM1102.01 346.51 a7.5 7.5 0 1 0 15 0 a7.5 7.5 0 1 0 -15 0zM1102.01 421.51 a7.5 7.5 0 1 0 15 0 a7.5 7.5 0 1 0 -15 0zM1037.06 459.01 a7.5 7.5 0 1 0 15 0 a7.5 7.5 0 1 0 -15 0zM972.1 421.51 a7.5 7.5 0 1 0 15 0 a7.5 7.5 0 1 0 -15 0zM972.1 346.51 a7.5 7.5 0 1 0 15 0 a7.5 7.5 0 1 0 -15 0zM972.1 871.51 a7.5 7.5 0 1 0 15 0 a7.5 7.5 0 1 0 -15 0zM1037.06 909.01 a7.5 7.5 0 1 0 15 0 a7.5 7.5 0 1 0 -15 0zM1037.06 984.01 a7.5 7.5 0 1 0 15 0 a7.5 7.5 0 1 0 -15 0zM907.15 909.01 a7.5 7.5 0 1 0 15 0 a7.5 7.5 0 1 0 -15 0zM1037.06 1134.01 a7.5 7.5 0 1 0 15 0 a7.5 7.5 0 1 0 -15 0zM1037.06 1209.01 a7.5 7.5 0 1 0 15 0 a7.5 7.5 0 1 0 -15 0zM972.1 1246.51 a7.5 7.5 0 1 0 15 0 a7.5 7.5 0 1 0 -15 0zM907.15 1209.01 a7.5 7.5 0 1 0 15 0 a7.5 7.5 0 1 0 -15 0zM1037.06 1434.01 a7.5 7.5 0 1 0 15 0 a7.5 7.5 0 1 0 -15 0zM1102.01 1471.51 a7.5 7.5 0 1 0 15 0 a7.5 7.5 0 1 0 -15 0zM1102.01 1546.51 a7.5 7.5 0 1 0 15 0 a7.5 7.5 0 1 0 -15 0zM1037.06 1584.01 a7.5 7.5 0 1 0 15 0 a7.5 7.5 0 1 0 -15 0zM1102.01 646.51 a7.5 7.5 0 1 0 15 0 a7.5 7.5 0 1 0 -15 0zM1166.96 684.01 a7.5 7.5 0 1 0 15 0 a7.5 7.5 0 1 0 -15 0zM1166.96 759.01 a7.5 7.5 0 1 0 15 0 a7.5 7.5 0 1 0 -15 0zM1102.01 796.51 a7.5 7.5 0 1 0 15 0 a7.5 7.5 0 1 0 -15 0zM1037.06 759.01 a7.5 7.5 0 1 0 15 0 a7.5 7.5 0 1 0 -15 0zM1037.06 684.01 a7.5 7.5 0 1 0 15 0 a7.5 7.5 0 1 0 -15 0zM1102.01 871.51 a7.5 7.5 0 1 0 15 0 a7.5 7.5 0 1 0 -15 0zM1166.96 909.01 a7.5 7.5 0 1 0 15 0 a7.5 7.5 0 1 0 -15 0zM1166.96 984.01 a7.5 7.5 0 1 0 15 0 a7.5 7.5 0 1 0 -15 0zM1102.01 1021.51 a7.5 7.5 0 1 0 15 0 a7.5 7.5 0 1 0 -15 0zM1102.01 1096.51 a7.5 7.5 0 1 0 15 0 a7.5 7.5 0 1 0 -15 0zM1166.96 1134.01 a7.5 7.5 0 1 0 15 0 a7.5 7.5 0 1 0 -15 0zM1166.96 1209.01 a7.5 7.5 0 1 0 15 0 a7.5 7.5 0 1 0 -15 0zM1102.01 1246.51 a7.5 7.5 0 1 0 15 0 a7.5 7.5 0 1 0 -15 0zM1166.96 1434.01 a7.5 7.5 0 1 0 15 0 a7.5 7.5 0 1 0 -15 0zM1231.92 1471.51 a7.5 7.5 0 1 0 15 0 a7.5 7.5 0 1 0 -15 0zM1231.92 1546.51 a7.5 7.5 0 1 0 15 0 a7.5 7.5 0 1 0 -15 0zM1166.96 1584.01 a7.5 7.5 0 1 0 15 0 a7.5 7.5 0 1 0 -15 0zM1166.96 1659.01 a7.5 7.5 0 1 0 15 0 a7.5 7.5 0 1 0 -15 0zM1102.01 1696.51 a7.5 7.5 0 1 0 15 0 a7.5 7.5 0 1 0 -15 0zM1037.06 1659.01 a7.5 7.5 0 1 0 15 0 a7.5 7.5 0 1 0 -15 0zM1166.96 1884.01 a7.5 7.5 0 1 0 15 0 a7.5 7.5 0 1 0 -15 0zM1231.92 1921.51 a7.5 7.5 0 1 0 15 0 a7.5 7.5 0 1 0 -15 0zM1231.92 1996.51 a7.5 7.5 0 1 0 15 0 a7.5 7.5 0 1 0 -15 0zM1166.96 2034.01 a7.5 7.5 0 1 0 15 0 a7.5 7.5 0 1 0 -15 0zM1102.01 1996.51 a7.5 7.5 0 1 0 15 0 a7.5 7.5 0 1 0 -15 0zM1102.01 1921.51 a7.5 7.5 0 1 0 15 0 a7.5 7.5 0 1 0 -15 0zM1231.92 -28.49 a7.5 7.5 0 1 0 15 0 a7.5 7.5 0 1 0 -15 0zM1296.87 9.01 a7.5 7.5 0 1 0 15 0 a7.5 7.5 0 1 0 -15 0zM1296.87 84.01 a7.5 7.5 0 1 0 15 0 a7.5 7.5 0 1 0 -15 0zM1231.92 121.51 a7.5 7.5 0 1 0 15 0 a7.5 7.5 0 1 0 -15 0zM1166.96 84.01 a7.5 7.5 0 1 0 15 0 a7.5 7.5 0 1 0 -15 0zM1166.96 9.01 a7.5 7.5 0 1 0 15 0 a7.5 7.5 0 1 0 -15 0zM1361.82 121.51 a7.5 7.5 0 1 0 15 0 a7.5 7.5 0 1 0 -15 0zM1361.82 196.51 a7.5 7.5 0 1 0 15 0 a7.5 7.5 0 1 0 -15 0zM1296.87 234.01 a7.5 7.5 0 1 0 15 0 a7.5 7.5 0 1 0 -15 0zM1231.92 196.51 a7.5 7.5 0 1 0 15 0 a7.5 7.5 0 1 0 -15 0zM1231.92 421.51 a7.5 7.5 0 1 0 15 0 a7.5 7.5 0 1 0 -15 0zM1296.87 459.01 a7.5 7.5 0 1 0 15 0 a7.5 7.5 0 1 0 -15 0zM1296.87 534.01 a7.5 7.5 0 1 0 15 0 a7.5 7.5 0 1 0 -15 0zM1231.92 571.51 a7.5 7.5 0 1 0 15 0 a7.5 7.5 0 1 0 -15 0zM1166.96 534.01 a7.5 7.5 0 1 0 15 0 a7.5 7.5 0 1 0 -15 0zM1166.96 459.01 a7.5 7.5 0 1 0 15 0 a7.5 7.5 0 1 0 -15 0zM1296.87 759.01 a7.5 7.5 0 1 0 15 0 a7.5 7.5 0 1 0 -15 0zM1361.82 796.51 a7.5 7.5 0 1 0 15 0 a7.5 7.5 0 1 0 -15 0zM1361.82 871.51 a7.5 7.5 0 1 0 15 0 a7.5 7.5 0 1 0 -15 0zM1296.87 909.01 a7.5 7.5 0 1 0 15 0 a7.5 7.5 0 1 0 -15 0zM1231.92 871.51 a7.5 7.5 0 1 0 15 0 a7.5 7.5 0 1 0 -15 0zM1231.92 796.51 a7.5 7.5 0 1 0 15 0 a7.5 7.5 0 1 0 -15 0zM1296.87 984.01 a7.5 7.5 0 1 0 15 0 a7.5 7.5 0 1 0 -15 0zM1231.92 1021.51 a7.5 7.5 0 1 0 15 0 a7.5 7.5 0 1 0 -15 0zM1361.82 1021.51 a7.5 7.5 0 1 0 15 0 a7.5 7.5 0 1 0 -15 0zM1361.82 1096.51 a7.5 7.5 0 1 0 15 0 a7.5 7.5 0 1 0 -15 0zM1296.87 1134.01 a7.5 7.5 0 1 0 15 0 a7.5 7.5 0 1 0 -15 0zM1231.92 1096.51 a7.5 7.5 0 1 0 15 0 a7.5 7.5 0 1 0 -15 0zM1296.87 1209.01 a7.5 7.5 0 1 0 15 0 a7.5 7.5 0 1 0 -15 0zM1361.82 1246.51 a7.5 7.5 0 1 0 15 0 a7.5 7.5 0 1 0 -15 0zM1361.82 1321.51 a7.5 7.5 0 1 0 15 0 a7.5 7.5 0 1 0 -15 0zM1296.87 1359.01 a7.5 7.5 0 1 0 15 0 a7.5 7.5 0 1 0 -15 0zM1231.92 1321.51 a7.5 7.5 0 1 0 15 0 a7.5 7.5 0 1 0 -15 0zM1231.92 1246.51 a7.5 7.5 0 1 0 15 0 a7.5 7.5 0 1 0 -15 0zM1296.87 1584.01 a7.5 7.5 0 1 0 15 0 a7.5 7.5 0 1 0 -15 0zM1296.87 1659.01 a7.5 7.5 0 1 0 15 0 a7.5 7.5 0 1 0 -15 0zM1231.92 1696.51 a7.5 7.5 0 1 0 15 0 a7.5 7.5 0 1 0 -15 0zM1231.92 1771.51 a7.5 7.5 0 1 0 15 0 a7.5 7.5 0 1 0 -15 0zM1296.87 1809.01 a7.5 7.5 0 1 0 15 0 a7.5 7.5 0 1 0 -15 0zM1296.87 1884.01 a7.5 7.5 0 1 0 15 0 a7.5 7.5 0 1 0 -15 0zM1166.96 1809.01 a7.5 7.5 0 1 0 15 0 a7.5 7.5 0 1 0 -15 0zM1361.83 -28.49 a7.5 7.5 0 1 0 15 0 a7.5 7.5 0 1 0 -15 0zM1426.78 9.01 a7.5 7.5 0 1 0 15 0 a7.5 7.5 0 1 0 -15 0zM1426.78 84.01 a7.5 7.5 0 1 0 15 0 a7.5 7.5 0 1 0 -15 0zM1361.83 121.51 a7.5 7.5 0 1 0 15 0 a7.5 7.5 0 1 0 -15 0zM1426.78 309.01 a7.5 7.5 0 1 0 15 0 a7.5 7.5 0 1 0 -15 0zM1491.73 346.51 a7.5 7.5 0 1 0 15 0 a7.5 7.5 0 1 0 -15 0zM1491.73 421.51 a7.5 7.5 0 1 0 15 0 a7.5 7.5 0 1 0 -15 0zM1426.78 459.01 a7.5 7.5 0 1 0 15 0 a7.5 7.5 0 1 0 -15 0zM1361.83 421.51 a7.5 7.5 0 1 0 15 0 a7.5 7.5 0 1 0 -15 0zM1361.83 346.51 a7.5 7.5 0 1 0 15 0 a7.5 7.5 0 1 0 -15 0zM1426.78 534.01 a7.5 7.5 0 1 0 15 0 a7.5 7.5 0 1 0 -15 0zM1361.83 571.51 a7.5 7.5 0 1 0 15 0 a7.5 7.5 0 1 0 -15 0zM1361.83 646.51 a7.5 7.5 0 1 0 15 0 a7.5 7.5 0 1 0 -15 0zM1426.78 684.01 a7.5 7.5 0 1 0 15 0 a7.5 7.5 0 1 0 -15 0zM1426.78 759.01 a7.5 7.5 0 1 0 15 0 a7.5 7.5 0 1 0 -15 0zM1361.83 796.51 a7.5 7.5 0 1 0 15 0 a7.5 7.5 0 1 0 -15 0zM1296.87 684.01 a7.5 7.5 0 1 0 15 0 a7.5 7.5 0 1 0 -15 0zM1491.73 796.51 a7.5 7.5 0 1 0 15 0 a7.5 7.5 0 1 0 -15 0zM1491.73 871.51 a7.5 7.5 0 1 0 15 0 a7.5 7.5 0 1 0 -15 0zM1426.78 909.01 a7.5 7.5 0 1 0 15 0 a7.5 7.5 0 1 0 -15 0zM1361.83 871.51 a7.5 7.5 0 1 0 15 0 a7.5 7.5 0 1 0 -15 0zM1426.78 984.01 a7.5 7.5 0 1 0 15 0 a7.5 7.5 0 1 0 -15 0zM1361.83 1021.51 a7.5 7.5 0 1 0 15 0 a7.5 7.5 0 1 0 -15 0zM1491.73 196.51 a7.5 7.5 0 1 0 15 0 a7.5 7.5 0 1 0 -15 0zM1556.69 234.01 a7.5 7.5 0 1 0 15 0 a7.5 7.5 0 1 0 -15 0zM1556.69 309.01 a7.5 7.5 0 1 0 15 0 a7.5 7.5 0 1 0 -15 0zM1426.78 234.01 a7.5 7.5 0 1 0 15 0 a7.5 7.5 0 1 0 -15 0zM1556.69 759.01 a7.5 7.5 0 1 0 15 0 a7.5 7.5 0 1 0 -15 0zM1621.64 796.51 a7.5 7.5 0 1 0 15 0 a7.5 7.5 0 1 0 -15 0zM1621.64 871.51 a7.5 7.5 0 1 0 15 0 a7.5 7.5 0 1 0 -15 0zM1556.69 909.01 a7.5 7.5 0 1 0 15 0 a7.5 7.5 0 1 0 -15 0zM1491.73 1096.51 a7.5 7.5 0 1 0 15 0 a7.5 7.5 0 1 0 -15 0zM1556.69 1134.01 a7.5 7.5 0 1 0 15 0 a7.5 7.5 0 1 0 -15 0zM1556.69 1209.01 a7.5 7.5 0 1 0 15 0 a7.5 7.5 0 1 0 -15 0zM1491.73 1246.51 a7.5 7.5 0 1 0 15 0 a7.5 7.5 0 1 0 -15 0zM1426.78 1209.01 a7.5 7.5 0 1 0 15 0 a7.5 7.5 0 1 0 -15 0zM1426.78 1134.01 a7.5 7.5 0 1 0 15 0 a7.5 7.5 0 1 0 -15 0zM1621.64 1246.51 a7.5 7.5 0 1 0 15 0 a7.5 7.5 0 1 0 -15 0zM1621.64 1321.51 a7.5 7.5 0 1 0 15 0 a7.5 7.5 0 1 0 -15 0zM1556.69 1359.01 a7.5 7.5 0 1 0 15 0 a7.5 7.5 0 1 0 -15 0zM1491.73 1321.51 a7.5 7.5 0 1 0 15 0 a7.5 7.5 0 1 0 -15 0zM1491.73 1771.51 a7.5 7.5 0 1 0 15 0 a7.5 7.5 0 1 0 -15 0zM1556.69 1809.01 a7.5 7.5 0 1 0 15 0 a7.5 7.5 0 1 0 -15 0zM1556.69 1884.01 a7.5 7.5 0 1 0 15 0 a7.5 7.5 0 1 0 -15 0zM1491.73 1921.51 a7.5 7.5 0 1 0 15 0 a7.5 7.5 0 1 0 -15 0zM1426.78 1884.01 a7.5 7.5 0 1 0 15 0 a7.5 7.5 0 1 0 -15 0zM1426.78 1809.01 a7.5 7.5 0 1 0 15 0 a7.5 7.5 0 1 0 -15 0zM1621.64 196.51 a7.5 7.5 0 1 0 15 0 a7.5 7.5 0 1 0 -15 0zM1686.59 234.01 a7.5 7.5 0 1 0 15 0 a7.5 7.5 0 1 0 -15 0zM1686.59 309.01 a7.5 7.5 0 1 0 15 0 a7.5 7.5 0 1 0 -15 0zM1621.64 346.51 a7.5 7.5 0 1 0 15 0 a7.5 7.5 0 1 0 -15 0zM1621.64 646.51 a7.5 7.5 0 1 0 15 0 a7.5 7.5 0 1 0 -15 0zM1686.59 684.01 a7.5 7.5 0 1 0 15 0 a7.5 7.5 0 1 0 -15 0zM1686.59 759.01 a7.5 7.5 0 1 0 15 0 a7.5 7.5 0 1 0 -15 0zM1556.69 684.01 a7.5 7.5 0 1 0 15 0 a7.5 7.5 0 1 0 -15 0zM1751.55 796.51 a7.5 7.5 0 1 0 15 0 a7.5 7.5 0 1 0 -15 0zM1751.55 871.51 a7.5 7.5 0 1 0 15 0 a7.5 7.5 0 1 0 -15 0zM1686.59 909.01 a7.5 7.5 0 1 0 15 0 a7.5 7.5 0 1 0 -15 0zM1686.59 984.01 a7.5 7.5 0 1 0 15 0 a7.5 7.5 0 1 0 -15 0zM1621.64 1021.51 a7.5 7.5 0 1 0 15 0 a7.5 7.5 0 1 0 -15 0zM1556.69 984.01 a7.5 7.5 0 1 0 15 0 a7.5 7.5 0 1 0 -15 0zM1686.59 1209.01 a7.5 7.5 0 1 0 15 0 a7.5 7.5 0 1 0 -15 0zM1751.55 1246.51 a7.5 7.5 0 1 0 15 0 a7.5 7.5 0 1 0 -15 0zM1751.55 1321.51 a7.5 7.5 0 1 0 15 0 a7.5 7.5 0 1 0 -15 0zM1686.59 1359.01 a7.5 7.5 0 1 0 15 0 a7.5 7.5 0 1 0 -15 0zM1686.59 1434.01 a7.5 7.5 0 1 0 15 0 a7.5 7.5 0 1 0 -15 0zM1751.55 1471.51 a7.5 7.5 0 1 0 15 0 a7.5 7.5 0 1 0 -15 0zM1751.55 1546.51 a7.5 7.5 0 1 0 15 0 a7.5 7.5 0 1 0 -15 0zM1686.59 1584.01 a7.5 7.5 0 1 0 15 0 a7.5 7.5 0 1 0 -15 0zM1621.64 1546.51 a7.5 7.5 0 1 0 15 0 a7.5 7.5 0 1 0 -15 0zM1621.64 1471.51 a7.5 7.5 0 1 0 15 0 a7.5 7.5 0 1 0 -15 0zM1686.59 1659.01 a7.5 7.5 0 1 0 15 0 a7.5 7.5 0 1 0 -15 0zM1621.64 1696.51 a7.5 7.5 0 1 0 15 0 a7.5 7.5 0 1 0 -15 0zM1556.69 1659.01 a7.5 7.5 0 1 0 15 0 a7.5 7.5 0 1 0 -15 0zM1556.69 1584.01 a7.5 7.5 0 1 0 15 0 a7.5 7.5 0 1 0 -15 0zM1621.64 1771.51 a7.5 7.5 0 1 0 15 0 a7.5 7.5 0 1 0 -15 0zM1686.59 1809.01 a7.5 7.5 0 1 0 15 0 a7.5 7.5 0 1 0 -15 0zM1686.59 1884.01 a7.5 7.5 0 1 0 15 0 a7.5 7.5 0 1 0 -15 0zM1621.64 1921.51 a7.5 7.5 0 1 0 15 0 a7.5 7.5 0 1 0 -15 0zM1751.55 196.51 a7.5 7.5 0 1 0 15 0 a7.5 7.5 0 1 0 -15 0zM1816.5 234.01 a7.5 7.5 0 1 0 15 0 a7.5 7.5 0 1 0 -15 0zM1816.5 309.01 a7.5 7.5 0 1 0 15 0 a7.5 7.5 0 1 0 -15 0zM1751.55 346.51 a7.5 7.5 0 1 0 15 0 a7.5 7.5 0 1 0 -15 0zM1881.45 346.51 a7.5 7.5 0 1 0 15 0 a7.5 7.5 0 1 0 -15 0zM1881.45 421.51 a7.5 7.5 0 1 0 15 0 a7.5 7.5 0 1 0 -15 0zM1816.5 459.01 a7.5 7.5 0 1 0 15 0 a7.5 7.5 0 1 0 -15 0zM1751.55 421.51 a7.5 7.5 0 1 0 15 0 a7.5 7.5 0 1 0 -15 0zM1751.55 1096.51 a7.5 7.5 0 1 0 15 0 a7.5 7.5 0 1 0 -15 0zM1816.5 1134.01 a7.5 7.5 0 1 0 15 0 a7.5 7.5 0 1 0 -15 0zM1816.5 1209.01 a7.5 7.5 0 1 0 15 0 a7.5 7.5 0 1 0 -15 0zM1686.59 1134.01 a7.5 7.5 0 1 0 15 0 a7.5 7.5 0 1 0 -15 0zM1881.45 1246.51 a7.5 7.5 0 1 0 15 0 a7.5 7.5 0 1 0 -15 0zM1881.45 1321.51 a7.5 7.5 0 1 0 15 0 a7.5 7.5 0 1 0 -15 0zM1816.5 1359.01 a7.5 7.5 0 1 0 15 0 a7.5 7.5 0 1 0 -15 0zM1751.55 1771.51 a7.5 7.5 0 1 0 15 0 a7.5 7.5 0 1 0 -15 0zM1816.5 1809.01 a7.5 7.5 0 1 0 15 0 a7.5 7.5 0 1 0 -15 0zM1816.5 1884.01 a7.5 7.5 0 1 0 15 0 a7.5 7.5 0 1 0 -15 0zM1751.55 1921.51 a7.5 7.5 0 1 0 15 0 a7.5 7.5 0 1 0 -15 0zM1881.45 1921.51 a7.5 7.5 0 1 0 15 0 a7.5 7.5 0 1 0 -15 0zM1881.45 1996.51 a7.5 7.5 0 1 0 15 0 a7.5 7.5 0 1 0 -15 0zM1816.5 2034.01 a7.5 7.5 0 1 0 15 0 a7.5 7.5 0 1 0 -15 0zM1751.55 1996.51 a7.5 7.5 0 1 0 15 0 a7.5 7.5 0 1 0 -15 0zM1881.45 646.51 a7.5 7.5 0 1 0 15 0 a7.5 7.5 0 1 0 -15 0zM1946.41 684.01 a7.5 7.5 0 1 0 15 0 a7.5 7.5 0 1 0 -15 0zM1946.41 759.01 a7.5 7.5 0 1 0 15 0 a7.5 7.5 0 1 0 -15 0zM1881.45 796.51 a7.5 7.5 0 1 0 15 0 a7.5 7.5 0 1 0 -15 0zM1816.5 759.01 a7.5 7.5 0 1 0 15 0 a7.5 7.5 0 1 0 -15 0zM1816.5 684.01 a7.5 7.5 0 1 0 15 0 a7.5 7.5 0 1 0 -15 0zM1881.45 871.51 a7.5 7.5 0 1 0 15 0 a7.5 7.5 0 1 0 -15 0zM1946.41 909.01 a7.5 7.5 0 1 0 15 0 a7.5 7.5 0 1 0 -15 0zM1946.41 984.01 a7.5 7.5 0 1 0 15 0 a7.5 7.5 0 1 0 -15 0zM1881.45 1021.51 a7.5 7.5 0 1 0 15 0 a7.5 7.5 0 1 0 -15 0zM1816.5 984.01 a7.5 7.5 0 1 0 15 0 a7.5 7.5 0 1 0 -15 0zM1816.5 909.01 a7.5 7.5 0 1 0 15 0 a7.5 7.5 0 1 0 -15 0zM2011.36 1021.51 a7.5 7.5 0 1 0 15 0 a7.5 7.5 0 1 0 -15 0zM2011.36 1096.51 a7.5 7.5 0 1 0 15 0 a7.5 7.5 0 1 0 -15 0zM1946.41 1134.01 a7.5 7.5 0 1 0 15 0 a7.5 7.5 0 1 0 -15 0zM1881.45 1096.51 a7.5 7.5 0 1 0 15 0 a7.5 7.5 0 1 0 -15 0zM1881.45 1546.51 a7.5 7.5 0 1 0 15 0 a7.5 7.5 0 1 0 -15 0zM1946.41 1584.01 a7.5 7.5 0 1 0 15 0 a7.5 7.5 0 1 0 -15 0zM1946.41 1659.01 a7.5 7.5 0 1 0 15 0 a7.5 7.5 0 1 0 -15 0zM1881.45 1696.51 a7.5 7.5 0 1 0 15 0 a7.5 7.5 0 1 0 -15 0zM1816.5 1659.01 a7.5 7.5 0 1 0 15 0 a7.5 7.5 0 1 0 -15 0zM1816.5 1584.01 a7.5 7.5 0 1 0 15 0 a7.5 7.5 0 1 0 -15 0zM2011.36 1696.51 a7.5 7.5 0 1 0 15 0 a7.5 7.5 0 1 0 -15 0zM2011.36 1771.51 a7.5 7.5 0 1 0 15 0 a7.5 7.5 0 1 0 -15 0zM1946.41 1809.01 a7.5 7.5 0 1 0 15 0 a7.5 7.5 0 1 0 -15 0zM1881.45 1771.51 a7.5 7.5 0 1 0 15 0 a7.5 7.5 0 1 0 -15 0zM1946.41 2034.01 a7.5 7.5 0 1 0 15 0 a7.5 7.5 0 1 0 -15 0zM1946.41 2109.01 a7.5 7.5 0 1 0 15 0 a7.5 7.5 0 1 0 -15 0zM1881.45 2146.51 a7.5 7.5 0 1 0 15 0 a7.5 7.5 0 1 0 -15 0zM1816.5 2109.01 a7.5 7.5 0 1 0 15 0 a7.5 7.5 0 1 0 -15 0zM2011.36 421.51 a7.5 7.5 0 1 0 15 0 a7.5 7.5 0 1 0 -15 0zM2076.32 459.01 a7.5 7.5 0 1 0 15 0 a7.5 7.5 0 1 0 -15 0zM2076.32 534.01 a7.5 7.5 0 1 0 15 0 a7.5 7.5 0 1 0 -15 0zM2011.36 571.51 a7.5 7.5 0 1 0 15 0 a7.5 7.5 0 1 0 -15 0zM1946.41 534.01 a7.5 7.5 0 1 0 15 0 a7.5 7.5 0 1 0 -15 0zM1946.41 459.01 a7.5 7.5 0 1 0 15 0 a7.5 7.5 0 1 0 -15 0zM2011.36 1546.51 a7.5 7.5 0 1 0 15 0 a7.5 7.5 0 1 0 -15 0zM2076.32 1584.01 a7.5 7.5 0 1 0 15 0 a7.5 7.5 0 1 0 -15 0zM2076.32 1659.01 a7.5 7.5 0 1 0 15 0 a7.5 7.5 0 1 0 -15 0zM2076.32 1884.01 a7.5 7.5 0 1 0 15 0 a7.5 7.5 0 1 0 -15 0zM2141.27 1921.51 a7.5 7.5 0 1 0 15 0 a7.5 7.5 0 1 0 -15 0zM2141.27 1996.51 a7.5 7.5 0 1 0 15 0 a7.5 7.5 0 1 0 -15 0zM2076.32 2034.01 a7.5 7.5 0 1 0 15 0 a7.5 7.5 0 1 0 -15 0zM2011.36 1996.51 a7.5 7.5 0 1 0 15 0 a7.5 7.5 0 1 0 -15 0zM2011.36 1921.51 a7.5 7.5 0 1 0 15 0 a7.5 7.5 0 1 0 -15 0z" fill="rgba(144, 224, 239, 1)"></path><path d="M83.58 66.66L125.15 90.66L125.15 138.66L83.58 162.66L42.01 138.66L42.01 90.66zM42.01 138.66L83.58 162.66L83.58 210.66L42.01 234.66L0.44 210.66L0.44 162.66zM42.01 282.66L83.58 306.66L83.58 354.66L42.01 378.66L0.44 354.66L0.44 306.66zM83.58 354.66L125.15 378.66L125.15 426.66L83.58 450.66L42.01 426.66L42.01 378.66zM83.58 498.66L125.15 522.66L125.15 570.66L83.58 594.66L42.01 570.66L42.01 522.66zM42.01 570.66L83.58 594.66L83.58 642.66L42.01 666.66L0.44 642.66L0.44 594.66zM83.58 642.66L125.15 666.66L125.15 714.66L83.58 738.66L42.01 714.66L42.01 666.66zM42.01 714.66L83.58 738.66L83.58 786.66L42.01 810.66L0.44 786.66L0.44 738.66zM83.58 786.66L125.15 810.66L125.15 858.66L83.58 882.66L42.01 858.66L42.01 810.66zM42.01 858.66L83.58 882.66L83.58 930.66L42.01 954.66L0.44 930.66L0.44 882.66zM83.58 930.66L125.15 954.66L125.15 1002.66L83.58 1026.66L42.01 1002.66L42.01 954.66zM83.58 1218.66L125.15 1242.66L125.15 1290.66L83.58 1314.66L42.01 1290.66L42.01 1242.66zM42.01 1290.66L83.58 1314.66L83.58 1362.66L42.01 1386.66L0.44 1362.66L0.44 1314.66zM42.01 1434.66L83.58 1458.66L83.58 1506.66L42.01 1530.66L0.44 1506.66L0.44 1458.66zM83.58 1650.66L125.15 1674.66L125.15 1722.66L83.58 1746.66L42.01 1722.66L42.01 1674.66zM42.01 1866.66L83.58 1890.66L83.58 1938.66L42.01 1962.66L0.44 1938.66L0.44 1890.66zM42.01 2010.66L83.58 2034.66L83.58 2082.66L42.01 2106.66L0.44 2082.66L0.44 2034.66zM125.15 -5.34L166.72 18.66L166.72 66.66L125.15 90.66L83.58 66.66L83.58 18.66zM125.15 282.66L166.72 306.66L166.72 354.66L125.15 378.66L83.58 354.66L83.58 306.66zM166.72 498.66L208.29 522.66L208.29 570.66L166.72 594.66L125.15 570.66L125.15 522.66zM166.72 930.66L208.29 954.66L208.29 1002.66L166.72 1026.66L125.15 1002.66L125.15 954.66zM125.15 1002.66L166.72 1026.66L166.72 1074.66L125.15 1098.66L83.58 1074.66L83.58 1026.66zM125.15 1146.66L166.72 1170.66L166.72 1218.66L125.15 1242.66L83.58 1218.66L83.58 1170.66zM166.72 1506.66L208.29 1530.66L208.29 1578.66L166.72 1602.66L125.15 1578.66L125.15 1530.66zM125.15 1578.66L166.72 1602.66L166.72 1650.66L125.15 1674.66L83.58 1650.66L83.58 1602.66zM166.72 1650.66L208.29 1674.66L208.29 1722.66L166.72 1746.66L125.15 1722.66L125.15 1674.66zM249.86 210.66L291.43 234.66L291.43 282.66L249.86 306.66L208.29 282.66L208.29 234.66zM249.86 498.66L291.43 522.66L291.43 570.66L249.86 594.66L208.29 570.66L208.29 522.66zM208.29 714.66L249.86 738.66L249.86 786.66L208.29 810.66L166.72 786.66L166.72 738.66zM249.86 786.66L291.43 810.66L291.43 858.66L249.86 882.66L208.29 858.66L208.29 810.66zM208.29 858.66L249.86 882.66L249.86 930.66L208.29 954.66L166.72 930.66L166.72 882.66zM249.86 930.66L291.43 954.66L291.43 1002.66L249.86 1026.66L208.29 1002.66L208.29 954.66zM208.29 1146.66L249.86 1170.66L249.86 1218.66L208.29 1242.66L166.72 1218.66L166.72 1170.66zM249.86 1218.66L291.43 1242.66L291.43 1290.66L249.86 1314.66L208.29 1290.66L208.29 1242.66zM208.29 1434.66L249.86 1458.66L249.86 1506.66L208.29 1530.66L166.72 1506.66L166.72 1458.66zM249.86 1506.66L291.43 1530.66L291.43 1578.66L249.86 1602.66L208.29 1578.66L208.29 1530.66zM208.29 1578.66L249.86 1602.66L249.86 1650.66L208.29 1674.66L166.72 1650.66L166.72 1602.66zM208.29 1866.66L249.86 1890.66L249.86 1938.66L208.29 1962.66L166.72 1938.66L166.72 1890.66zM208.29 2010.66L249.86 2034.66L249.86 2082.66L208.29 2106.66L166.72 2082.66L166.72 2034.66zM333 66.66L374.57 90.66L374.57 138.66L333 162.66L291.43 138.66L291.43 90.66zM291.43 138.66L333 162.66L333 210.66L291.43 234.66L249.86 210.66L249.86 162.66zM333 210.66L374.57 234.66L374.57 282.66L333 306.66L291.43 282.66L291.43 234.66zM291.43 282.66L333 306.66L333 354.66L291.43 378.66L249.86 354.66L249.86 306.66zM333 354.66L374.57 378.66L374.57 426.66L333 450.66L291.43 426.66L291.43 378.66zM291.43 570.66L333 594.66L333 642.66L291.43 666.66L249.86 642.66L249.86 594.66zM291.43 714.66L333 738.66L333 786.66L291.43 810.66L249.86 786.66L249.86 738.66zM291.43 1002.66L333 1026.66L333 1074.66L291.43 1098.66L249.86 1074.66L249.86 1026.66zM291.43 1146.66L333 1170.66L333 1218.66L291.43 1242.66L249.86 1218.66L249.86 1170.66zM291.43 1290.66L333 1314.66L333 1362.66L291.43 1386.66L249.86 1362.66L249.86 1314.66zM333 1362.66L374.57 1386.66L374.57 1434.66L333 1458.66L291.43 1434.66L291.43 1386.66zM291.43 1434.66L333 1458.66L333 1506.66L291.43 1530.66L249.86 1506.66L249.86 1458.66zM333 1506.66L374.57 1530.66L374.57 1578.66L333 1602.66L291.43 1578.66L291.43 1530.66zM333 1650.66L374.57 1674.66L374.57 1722.66L333 1746.66L291.43 1722.66L291.43 1674.66zM291.43 1722.66L333 1746.66L333 1794.66L291.43 1818.66L249.86 1794.66L249.86 1746.66zM333 1938.66L374.57 1962.66L374.57 2010.66L333 2034.66L291.43 2010.66L291.43 1962.66zM291.43 2010.66L333 2034.66L333 2082.66L291.43 2106.66L249.86 2082.66L249.86 2034.66zM416.14 210.66L457.71 234.66L457.71 282.66L416.14 306.66L374.57 282.66L374.57 234.66zM374.57 282.66L416.14 306.66L416.14 354.66L374.57 378.66L333 354.66L333 306.66zM416.14 354.66L457.71 378.66L457.71 426.66L416.14 450.66L374.57 426.66L374.57 378.66zM374.57 426.66L416.14 450.66L416.14 498.66L374.57 522.66L333 498.66L333 450.66zM374.57 858.66L416.14 882.66L416.14 930.66L374.57 954.66L333 930.66L333 882.66zM416.14 930.66L457.71 954.66L457.71 1002.66L416.14 1026.66L374.57 1002.66L374.57 954.66zM416.14 1218.66L457.71 1242.66L457.71 1290.66L416.14 1314.66L374.57 1290.66L374.57 1242.66zM374.57 1290.66L416.14 1314.66L416.14 1362.66L374.57 1386.66L333 1362.66L333 1314.66zM374.57 1722.66L416.14 1746.66L416.14 1794.66L374.57 1818.66L333 1794.66L333 1746.66zM416.14 1794.66L457.71 1818.66L457.71 1866.66L416.14 1890.66L374.57 1866.66L374.57 1818.66zM457.71 -5.34L499.28 18.66L499.28 66.66L457.71 90.66L416.14 66.66L416.14 18.66zM457.71 138.66L499.28 162.66L499.28 210.66L457.71 234.66L416.14 210.66L416.14 162.66zM457.71 282.66L499.28 306.66L499.28 354.66L457.71 378.66L416.14 354.66L416.14 306.66zM457.71 426.66L499.28 450.66L499.28 498.66L457.71 522.66L416.14 498.66L416.14 450.66zM499.28 498.66L540.85 522.66L540.85 570.66L499.28 594.66L457.71 570.66L457.71 522.66zM457.71 570.66L499.28 594.66L499.28 642.66L457.71 666.66L416.14 642.66L416.14 594.66zM457.71 714.66L499.28 738.66L499.28 786.66L457.71 810.66L416.14 786.66L416.14 738.66zM499.28 786.66L540.85 810.66L540.85 858.66L499.28 882.66L457.71 858.66L457.71 810.66zM499.28 1362.66L540.85 1386.66L540.85 1434.66L499.28 1458.66L457.71 1434.66L457.71 1386.66zM499.28 1506.66L540.85 1530.66L540.85 1578.66L499.28 1602.66L457.71 1578.66L457.71 1530.66zM457.71 2010.66L499.28 2034.66L499.28 2082.66L457.71 2106.66L416.14 2082.66L416.14 2034.66zM540.85 -5.34L582.43 18.66L582.43 66.66L540.85 90.66L499.28 66.66L499.28 18.66zM540.85 138.66L582.43 162.66L582.43 210.66L540.85 234.66L499.28 210.66L499.28 162.66zM540.85 282.66L582.43 306.66L582.43 354.66L540.85 378.66L499.28 354.66L499.28 306.66zM582.43 498.66L624 522.66L624 570.66L582.43 594.66L540.85 570.66L540.85 522.66zM582.43 786.66L624 810.66L624 858.66L582.43 882.66L540.85 858.66L540.85 810.66zM540.85 858.66L582.43 882.66L582.43 930.66L540.85 954.66L499.28 930.66L499.28 882.66zM582.43 930.66L624 954.66L624 1002.66L582.43 1026.66L540.85 1002.66L540.85 954.66zM582.43 1074.66L624 1098.66L624 1146.66L582.43 1170.66L540.85 1146.66L540.85 1098.66zM540.85 1434.66L582.43 1458.66L582.43 1506.66L540.85 1530.66L499.28 1506.66L499.28 1458.66zM582.43 1506.66L624 1530.66L624 1578.66L582.43 1602.66L540.85 1578.66L540.85 1530.66zM540.85 1578.66L582.43 1602.66L582.43 1650.66L540.85 1674.66L499.28 1650.66L499.28 1602.66zM582.43 1650.66L624 1674.66L624 1722.66L582.43 1746.66L540.85 1722.66L540.85 1674.66zM582.43 1794.66L624 1818.66L624 1866.66L582.43 1890.66L540.85 1866.66L540.85 1818.66zM540.85 1866.66L582.43 1890.66L582.43 1938.66L540.85 1962.66L499.28 1938.66L499.28 1890.66zM582.43 1938.66L624 1962.66L624 2010.66L582.43 2034.66L540.85 2010.66L540.85 1962.66zM624 -5.34L665.57 18.66L665.57 66.66L624 90.66L582.43 66.66L582.43 18.66zM624 138.66L665.57 162.66L665.57 210.66L624 234.66L582.43 210.66L582.43 162.66zM624 426.66L665.57 450.66L665.57 498.66L624 522.66L582.43 498.66L582.43 450.66zM665.57 498.66L707.14 522.66L707.14 570.66L665.57 594.66L624 570.66L624 522.66zM624 570.66L665.57 594.66L665.57 642.66L624 666.66L582.43 642.66L582.43 594.66zM665.57 642.66L707.14 666.66L707.14 714.66L665.57 738.66L624 714.66L624 666.66zM624 714.66L665.57 738.66L665.57 786.66L624 810.66L582.43 786.66L582.43 738.66zM624 1002.66L665.57 1026.66L665.57 1074.66L624 1098.66L582.43 1074.66L582.43 1026.66zM665.57 1074.66L707.14 1098.66L707.14 1146.66L665.57 1170.66L624 1146.66L624 1098.66zM624 1146.66L665.57 1170.66L665.57 1218.66L624 1242.66L582.43 1218.66L582.43 1170.66zM624 1434.66L665.57 1458.66L665.57 1506.66L624 1530.66L582.43 1506.66L582.43 1458.66zM665.57 1506.66L707.14 1530.66L707.14 1578.66L665.57 1602.66L624 1578.66L624 1530.66zM665.57 1650.66L707.14 1674.66L707.14 1722.66L665.57 1746.66L624 1722.66L624 1674.66zM665.57 1794.66L707.14 1818.66L707.14 1866.66L665.57 1890.66L624 1866.66L624 1818.66zM665.57 1938.66L707.14 1962.66L707.14 2010.66L665.57 2034.66L624 2010.66L624 1962.66zM624 2010.66L665.57 2034.66L665.57 2082.66L624 2106.66L582.43 2082.66L582.43 2034.66zM707.14 -5.34L748.71 18.66L748.71 66.66L707.14 90.66L665.57 66.66L665.57 18.66zM707.14 426.66L748.71 450.66L748.71 498.66L707.14 522.66L665.57 498.66L665.57 450.66zM748.71 642.66L790.28 666.66L790.28 714.66L748.71 738.66L707.14 714.66L707.14 666.66zM748.71 930.66L790.28 954.66L790.28 1002.66L748.71 1026.66L707.14 1002.66L707.14 954.66zM707.14 1146.66L748.71 1170.66L748.71 1218.66L707.14 1242.66L665.57 1218.66L665.57 1170.66zM748.71 1218.66L790.28 1242.66L790.28 1290.66L748.71 1314.66L707.14 1290.66L707.14 1242.66zM707.14 1290.66L748.71 1314.66L748.71 1362.66L707.14 1386.66L665.57 1362.66L665.57 1314.66zM748.71 1362.66L790.28 1386.66L790.28 1434.66L748.71 1458.66L707.14 1434.66L707.14 1386.66zM707.14 1578.66L748.71 1602.66L748.71 1650.66L707.14 1674.66L665.57 1650.66L665.57 1602.66zM748.71 1650.66L790.28 1674.66L790.28 1722.66L748.71 1746.66L707.14 1722.66L707.14 1674.66zM748.71 1794.66L790.28 1818.66L790.28 1866.66L748.71 1890.66L707.14 1866.66L707.14 1818.66zM707.14 2010.66L748.71 2034.66L748.71 2082.66L707.14 2106.66L665.57 2082.66L665.57 2034.66zM790.28 -5.34L831.85 18.66L831.85 66.66L790.28 90.66L748.71 66.66L748.71 18.66zM831.85 66.66L873.42 90.66L873.42 138.66L831.85 162.66L790.28 138.66L790.28 90.66zM831.85 210.66L873.42 234.66L873.42 282.66L831.85 306.66L790.28 282.66L790.28 234.66zM790.28 426.66L831.85 450.66L831.85 498.66L790.28 522.66L748.71 498.66L748.71 450.66zM790.28 570.66L831.85 594.66L831.85 642.66L790.28 666.66L748.71 642.66L748.71 594.66zM831.85 642.66L873.42 666.66L873.42 714.66L831.85 738.66L790.28 714.66L790.28 666.66zM831.85 786.66L873.42 810.66L873.42 858.66L831.85 882.66L790.28 858.66L790.28 810.66zM790.28 858.66L831.85 882.66L831.85 930.66L790.28 954.66L748.71 930.66L748.71 882.66zM790.28 1002.66L831.85 1026.66L831.85 1074.66L790.28 1098.66L748.71 1074.66L748.71 1026.66zM831.85 1362.66L873.42 1386.66L873.42 1434.66L831.85 1458.66L790.28 1434.66L790.28 1386.66zM831.85 1506.66L873.42 1530.66L873.42 1578.66L831.85 1602.66L790.28 1578.66L790.28 1530.66zM831.85 1650.66L873.42 1674.66L873.42 1722.66L831.85 1746.66L790.28 1722.66L790.28 1674.66zM831.85 1794.66L873.42 1818.66L873.42 1866.66L831.85 1890.66L790.28 1866.66L790.28 1818.66zM831.85 1938.66L873.42 1962.66L873.42 2010.66L831.85 2034.66L790.28 2010.66L790.28 1962.66zM790.28 2010.66L831.85 2034.66L831.85 2082.66L790.28 2106.66L748.71 2082.66L748.71 2034.66zM914.99 66.66L956.56 90.66L956.56 138.66L914.99 162.66L873.42 138.66L873.42 90.66zM914.99 210.66L956.56 234.66L956.56 282.66L914.99 306.66L873.42 282.66L873.42 234.66zM914.99 354.66L956.56 378.66L956.56 426.66L914.99 450.66L873.42 426.66L873.42 378.66zM914.99 498.66L956.56 522.66L956.56 570.66L914.99 594.66L873.42 570.66L873.42 522.66zM914.99 642.66L956.56 666.66L956.56 714.66L914.99 738.66L873.42 714.66L873.42 666.66zM873.42 714.66L914.99 738.66L914.99 786.66L873.42 810.66L831.85 786.66L831.85 738.66zM914.99 786.66L956.56 810.66L956.56 858.66L914.99 882.66L873.42 858.66L873.42 810.66zM873.42 858.66L914.99 882.66L914.99 930.66L873.42 954.66L831.85 930.66L831.85 882.66zM914.99 930.66L956.56 954.66L956.56 1002.66L914.99 1026.66L873.42 1002.66L873.42 954.66zM873.42 1146.66L914.99 1170.66L914.99 1218.66L873.42 1242.66L831.85 1218.66L831.85 1170.66zM914.99 1218.66L956.56 1242.66L956.56 1290.66L914.99 1314.66L873.42 1290.66L873.42 1242.66zM873.42 1290.66L914.99 1314.66L914.99 1362.66L873.42 1386.66L831.85 1362.66L831.85 1314.66zM914.99 1362.66L956.56 1386.66L956.56 1434.66L914.99 1458.66L873.42 1434.66L873.42 1386.66zM873.42 1722.66L914.99 1746.66L914.99 1794.66L873.42 1818.66L831.85 1794.66L831.85 1746.66zM914.99 1794.66L956.56 1818.66L956.56 1866.66L914.99 1890.66L873.42 1866.66L873.42 1818.66zM914.99 1938.66L956.56 1962.66L956.56 2010.66L914.99 2034.66L873.42 2010.66L873.42 1962.66zM873.42 2010.66L914.99 2034.66L914.99 2082.66L873.42 2106.66L831.85 2082.66L831.85 2034.66zM998.13 210.66L1039.7 234.66L1039.7 282.66L998.13 306.66L956.56 282.66L956.56 234.66zM998.13 498.66L1039.7 522.66L1039.7 570.66L998.13 594.66L956.56 570.66L956.56 522.66zM998.13 642.66L1039.7 666.66L1039.7 714.66L998.13 738.66L956.56 714.66L956.56 666.66zM998.13 786.66L1039.7 810.66L1039.7 858.66L998.13 882.66L956.56 858.66L956.56 810.66zM998.13 930.66L1039.7 954.66L1039.7 1002.66L998.13 1026.66L956.56 1002.66L956.56 954.66zM956.56 1002.66L998.13 1026.66L998.13 1074.66L956.56 1098.66L914.99 1074.66L914.99 1026.66zM956.56 1290.66L998.13 1314.66L998.13 1362.66L956.56 1386.66L914.99 1362.66L914.99 1314.66zM998.13 1506.66L1039.7 1530.66L1039.7 1578.66L998.13 1602.66L956.56 1578.66L956.56 1530.66zM956.56 1578.66L998.13 1602.66L998.13 1650.66L956.56 1674.66L914.99 1650.66L914.99 1602.66zM956.56 1722.66L998.13 1746.66L998.13 1794.66L956.56 1818.66L914.99 1794.66L914.99 1746.66zM998.13 1794.66L1039.7 1818.66L1039.7 1866.66L998.13 1890.66L956.56 1866.66L956.56 1818.66zM956.56 1866.66L998.13 1890.66L998.13 1938.66L956.56 1962.66L914.99 1938.66L914.99 1890.66zM1081.27 786.66L1122.84 810.66L1122.84 858.66L1081.27 882.66L1039.7 858.66L1039.7 810.66zM1039.7 1002.66L1081.27 1026.66L1081.27 1074.66L1039.7 1098.66L998.13 1074.66L998.13 1026.66zM1081.27 1074.66L1122.84 1098.66L1122.84 1146.66L1081.27 1170.66L1039.7 1146.66L1039.7 1098.66zM1039.7 1290.66L1081.27 1314.66L1081.27 1362.66L1039.7 1386.66L998.13 1362.66L998.13 1314.66zM1081.27 1362.66L1122.84 1386.66L1122.84 1434.66L1081.27 1458.66L1039.7 1434.66L1039.7 1386.66zM1081.27 1506.66L1122.84 1530.66L1122.84 1578.66L1081.27 1602.66L1039.7 1578.66L1039.7 1530.66zM1081.27 1650.66L1122.84 1674.66L1122.84 1722.66L1081.27 1746.66L1039.7 1722.66L1039.7 1674.66zM1081.27 1794.66L1122.84 1818.66L1122.84 1866.66L1081.27 1890.66L1039.7 1866.66L1039.7 1818.66zM1122.84 -5.34L1164.41 18.66L1164.41 66.66L1122.84 90.66L1081.27 66.66L1081.27 18.66zM1122.84 138.66L1164.41 162.66L1164.41 210.66L1122.84 234.66L1081.27 210.66L1081.27 162.66zM1164.41 354.66L1205.98 378.66L1205.98 426.66L1164.41 450.66L1122.84 426.66L1122.84 378.66zM1164.41 498.66L1205.98 522.66L1205.98 570.66L1164.41 594.66L1122.84 570.66L1122.84 522.66zM1122.84 714.66L1164.41 738.66L1164.41 786.66L1122.84 810.66L1081.27 786.66L1081.27 738.66zM1164.41 786.66L1205.98 810.66L1205.98 858.66L1164.41 882.66L1122.84 858.66L1122.84 810.66zM1122.84 858.66L1164.41 882.66L1164.41 930.66L1122.84 954.66L1081.27 930.66L1081.27 882.66zM1122.84 1146.66L1164.41 1170.66L1164.41 1218.66L1122.84 1242.66L1081.27 1218.66L1081.27 1170.66zM1164.41 1218.66L1205.98 1242.66L1205.98 1290.66L1164.41 1314.66L1122.84 1290.66L1122.84 1242.66zM1122.84 1290.66L1164.41 1314.66L1164.41 1362.66L1122.84 1386.66L1081.27 1362.66L1081.27 1314.66zM1164.41 1650.66L1205.98 1674.66L1205.98 1722.66L1164.41 1746.66L1122.84 1722.66L1122.84 1674.66zM1122.84 1722.66L1164.41 1746.66L1164.41 1794.66L1122.84 1818.66L1081.27 1794.66L1081.27 1746.66zM1164.41 1938.66L1205.98 1962.66L1205.98 2010.66L1164.41 2034.66L1122.84 2010.66L1122.84 1962.66zM1205.98 -5.34L1247.55 18.66L1247.55 66.66L1205.98 90.66L1164.41 66.66L1164.41 18.66zM1247.55 66.66L1289.12 90.66L1289.12 138.66L1247.55 162.66L1205.98 138.66L1205.98 90.66zM1205.98 138.66L1247.55 162.66L1247.55 210.66L1205.98 234.66L1164.41 210.66L1164.41 162.66zM1247.55 354.66L1289.12 378.66L1289.12 426.66L1247.55 450.66L1205.98 426.66L1205.98 378.66zM1205.98 1002.66L1247.55 1026.66L1247.55 1074.66L1205.98 1098.66L1164.41 1074.66L1164.41 1026.66zM1247.55 1074.66L1289.12 1098.66L1289.12 1146.66L1247.55 1170.66L1205.98 1146.66L1205.98 1098.66zM1247.55 1218.66L1289.12 1242.66L1289.12 1290.66L1247.55 1314.66L1205.98 1290.66L1205.98 1242.66zM1205.98 1434.66L1247.55 1458.66L1247.55 1506.66L1205.98 1530.66L1164.41 1506.66L1164.41 1458.66zM1247.55 1506.66L1289.12 1530.66L1289.12 1578.66L1247.55 1602.66L1205.98 1578.66L1205.98 1530.66zM1205.98 1578.66L1247.55 1602.66L1247.55 1650.66L1205.98 1674.66L1164.41 1650.66L1164.41 1602.66zM1247.55 1650.66L1289.12 1674.66L1289.12 1722.66L1247.55 1746.66L1205.98 1722.66L1205.98 1674.66zM1205.98 1722.66L1247.55 1746.66L1247.55 1794.66L1205.98 1818.66L1164.41 1794.66L1164.41 1746.66zM1247.55 1794.66L1289.12 1818.66L1289.12 1866.66L1247.55 1890.66L1205.98 1866.66L1205.98 1818.66zM1205.98 2010.66L1247.55 2034.66L1247.55 2082.66L1205.98 2106.66L1164.41 2082.66L1164.41 2034.66zM1330.69 66.66L1372.26 90.66L1372.26 138.66L1330.69 162.66L1289.12 138.66L1289.12 90.66zM1289.12 138.66L1330.69 162.66L1330.69 210.66L1289.12 234.66L1247.55 210.66L1247.55 162.66zM1289.12 282.66L1330.69 306.66L1330.69 354.66L1289.12 378.66L1247.55 354.66L1247.55 306.66zM1330.69 354.66L1372.26 378.66L1372.26 426.66L1330.69 450.66L1289.12 426.66L1289.12 378.66zM1289.12 426.66L1330.69 450.66L1330.69 498.66L1289.12 522.66L1247.55 498.66L1247.55 450.66zM1330.69 498.66L1372.26 522.66L1372.26 570.66L1330.69 594.66L1289.12 570.66L1289.12 522.66zM1330.69 642.66L1372.26 666.66L1372.26 714.66L1330.69 738.66L1289.12 714.66L1289.12 666.66zM1289.12 714.66L1330.69 738.66L1330.69 786.66L1289.12 810.66L1247.55 786.66L1247.55 738.66zM1330.69 786.66L1372.26 810.66L1372.26 858.66L1330.69 882.66L1289.12 858.66L1289.12 810.66zM1330.69 930.66L1372.26 954.66L1372.26 1002.66L1330.69 1026.66L1289.12 1002.66L1289.12 954.66zM1330.69 1074.66L1372.26 1098.66L1372.26 1146.66L1330.69 1170.66L1289.12 1146.66L1289.12 1098.66zM1330.69 1362.66L1372.26 1386.66L1372.26 1434.66L1330.69 1458.66L1289.12 1434.66L1289.12 1386.66zM1289.12 1434.66L1330.69 1458.66L1330.69 1506.66L1289.12 1530.66L1247.55 1506.66L1247.55 1458.66zM1330.69 1506.66L1372.26 1530.66L1372.26 1578.66L1330.69 1602.66L1289.12 1578.66L1289.12 1530.66zM1330.69 1650.66L1372.26 1674.66L1372.26 1722.66L1330.69 1746.66L1289.12 1722.66L1289.12 1674.66zM1330.69 1794.66L1372.26 1818.66L1372.26 1866.66L1330.69 1890.66L1289.12 1866.66L1289.12 1818.66zM1413.83 66.66L1455.4 90.66L1455.4 138.66L1413.83 162.66L1372.26 138.66L1372.26 90.66zM1372.26 138.66L1413.83 162.66L1413.83 210.66L1372.26 234.66L1330.69 210.66L1330.69 162.66zM1413.83 210.66L1455.4 234.66L1455.4 282.66L1413.83 306.66L1372.26 282.66L1372.26 234.66zM1372.26 282.66L1413.83 306.66L1413.83 354.66L1372.26 378.66L1330.69 354.66L1330.69 306.66zM1413.83 498.66L1455.4 522.66L1455.4 570.66L1413.83 594.66L1372.26 570.66L1372.26 522.66zM1372.26 570.66L1413.83 594.66L1413.83 642.66L1372.26 666.66L1330.69 642.66L1330.69 594.66zM1413.83 642.66L1455.4 666.66L1455.4 714.66L1413.83 738.66L1372.26 714.66L1372.26 666.66zM1413.83 1218.66L1455.4 1242.66L1455.4 1290.66L1413.83 1314.66L1372.26 1290.66L1372.26 1242.66zM1413.83 1506.66L1455.4 1530.66L1455.4 1578.66L1413.83 1602.66L1372.26 1578.66L1372.26 1530.66zM1413.83 1794.66L1455.4 1818.66L1455.4 1866.66L1413.83 1890.66L1372.26 1866.66L1372.26 1818.66zM1372.26 2010.66L1413.83 2034.66L1413.83 2082.66L1372.26 2106.66L1330.69 2082.66L1330.69 2034.66zM1455.4 -5.34L1496.97 18.66L1496.97 66.66L1455.4 90.66L1413.83 66.66L1413.83 18.66zM1496.97 66.66L1538.54 90.66L1538.54 138.66L1496.97 162.66L1455.4 138.66L1455.4 90.66zM1455.4 282.66L1496.97 306.66L1496.97 354.66L1455.4 378.66L1413.83 354.66L1413.83 306.66zM1455.4 426.66L1496.97 450.66L1496.97 498.66L1455.4 522.66L1413.83 498.66L1413.83 450.66zM1496.97 498.66L1538.54 522.66L1538.54 570.66L1496.97 594.66L1455.4 570.66L1455.4 522.66zM1496.97 642.66L1538.54 666.66L1538.54 714.66L1496.97 738.66L1455.4 714.66L1455.4 666.66zM1455.4 714.66L1496.97 738.66L1496.97 786.66L1455.4 810.66L1413.83 786.66L1413.83 738.66zM1496.97 930.66L1538.54 954.66L1538.54 1002.66L1496.97 1026.66L1455.4 1002.66L1455.4 954.66zM1496.97 1218.66L1538.54 1242.66L1538.54 1290.66L1496.97 1314.66L1455.4 1290.66L1455.4 1242.66zM1455.4 1578.66L1496.97 1602.66L1496.97 1650.66L1455.4 1674.66L1413.83 1650.66L1413.83 1602.66zM1455.4 1722.66L1496.97 1746.66L1496.97 1794.66L1455.4 1818.66L1413.83 1794.66L1413.83 1746.66zM1496.97 1938.66L1538.54 1962.66L1538.54 2010.66L1496.97 2034.66L1455.4 2010.66L1455.4 1962.66zM1455.4 2010.66L1496.97 2034.66L1496.97 2082.66L1455.4 2106.66L1413.83 2082.66L1413.83 2034.66zM1580.11 210.66L1621.69 234.66L1621.69 282.66L1580.11 306.66L1538.54 282.66L1538.54 234.66zM1538.54 282.66L1580.11 306.66L1580.11 354.66L1538.54 378.66L1496.97 354.66L1496.97 306.66zM1580.11 786.66L1621.69 810.66L1621.69 858.66L1580.11 882.66L1538.54 858.66L1538.54 810.66zM1538.54 858.66L1580.11 882.66L1580.11 930.66L1538.54 954.66L1496.97 930.66L1496.97 882.66zM1538.54 1002.66L1580.11 1026.66L1580.11 1074.66L1538.54 1098.66L1496.97 1074.66L1496.97 1026.66zM1580.11 1074.66L1621.69 1098.66L1621.69 1146.66L1580.11 1170.66L1538.54 1146.66L1538.54 1098.66zM1580.11 1218.66L1621.69 1242.66L1621.69 1290.66L1580.11 1314.66L1538.54 1290.66L1538.54 1242.66zM1580.11 1362.66L1621.69 1386.66L1621.69 1434.66L1580.11 1458.66L1538.54 1434.66L1538.54 1386.66zM1538.54 1434.66L1580.11 1458.66L1580.11 1506.66L1538.54 1530.66L1496.97 1506.66L1496.97 1458.66zM1538.54 1578.66L1580.11 1602.66L1580.11 1650.66L1538.54 1674.66L1496.97 1650.66L1496.97 1602.66zM1580.11 1650.66L1621.69 1674.66L1621.69 1722.66L1580.11 1746.66L1538.54 1722.66L1538.54 1674.66zM1538.54 1722.66L1580.11 1746.66L1580.11 1794.66L1538.54 1818.66L1496.97 1794.66L1496.97 1746.66zM1580.11 1794.66L1621.69 1818.66L1621.69 1866.66L1580.11 1890.66L1538.54 1866.66L1538.54 1818.66zM1538.54 1866.66L1580.11 1890.66L1580.11 1938.66L1538.54 1962.66L1496.97 1938.66L1496.97 1890.66zM1580.11 1938.66L1621.69 1962.66L1621.69 2010.66L1580.11 2034.66L1538.54 2010.66L1538.54 1962.66zM1621.69 -5.34L1663.26 18.66L1663.26 66.66L1621.69 90.66L1580.11 66.66L1580.11 18.66zM1621.69 138.66L1663.26 162.66L1663.26 210.66L1621.69 234.66L1580.11 210.66L1580.11 162.66zM1621.69 282.66L1663.26 306.66L1663.26 354.66L1621.69 378.66L1580.11 354.66L1580.11 306.66zM1621.69 570.66L1663.26 594.66L1663.26 642.66L1621.69 666.66L1580.11 642.66L1580.11 594.66zM1663.26 642.66L1704.83 666.66L1704.83 714.66L1663.26 738.66L1621.69 714.66L1621.69 666.66zM1663.26 786.66L1704.83 810.66L1704.83 858.66L1663.26 882.66L1621.69 858.66L1621.69 810.66zM1663.26 930.66L1704.83 954.66L1704.83 1002.66L1663.26 1026.66L1621.69 1002.66L1621.69 954.66zM1621.69 1002.66L1663.26 1026.66L1663.26 1074.66L1621.69 1098.66L1580.11 1074.66L1580.11 1026.66zM1663.26 1074.66L1704.83 1098.66L1704.83 1146.66L1663.26 1170.66L1621.69 1146.66L1621.69 1098.66zM1621.69 1578.66L1663.26 1602.66L1663.26 1650.66L1621.69 1674.66L1580.11 1650.66L1580.11 1602.66zM1663.26 1650.66L1704.83 1674.66L1704.83 1722.66L1663.26 1746.66L1621.69 1722.66L1621.69 1674.66zM1621.69 1722.66L1663.26 1746.66L1663.26 1794.66L1621.69 1818.66L1580.11 1794.66L1580.11 1746.66zM1746.4 66.66L1787.97 90.66L1787.97 138.66L1746.4 162.66L1704.83 138.66L1704.83 90.66zM1746.4 210.66L1787.97 234.66L1787.97 282.66L1746.4 306.66L1704.83 282.66L1704.83 234.66zM1746.4 498.66L1787.97 522.66L1787.97 570.66L1746.4 594.66L1704.83 570.66L1704.83 522.66zM1704.83 1002.66L1746.4 1026.66L1746.4 1074.66L1704.83 1098.66L1663.26 1074.66L1663.26 1026.66zM1704.83 1146.66L1746.4 1170.66L1746.4 1218.66L1704.83 1242.66L1663.26 1218.66L1663.26 1170.66zM1746.4 1362.66L1787.97 1386.66L1787.97 1434.66L1746.4 1458.66L1704.83 1434.66L1704.83 1386.66zM1704.83 1434.66L1746.4 1458.66L1746.4 1506.66L1704.83 1530.66L1663.26 1506.66L1663.26 1458.66zM1704.83 1578.66L1746.4 1602.66L1746.4 1650.66L1704.83 1674.66L1663.26 1650.66L1663.26 1602.66zM1746.4 1650.66L1787.97 1674.66L1787.97 1722.66L1746.4 1746.66L1704.83 1722.66L1704.83 1674.66zM1746.4 1794.66L1787.97 1818.66L1787.97 1866.66L1746.4 1890.66L1704.83 1866.66L1704.83 1818.66zM1704.83 1866.66L1746.4 1890.66L1746.4 1938.66L1704.83 1962.66L1663.26 1938.66L1663.26 1890.66zM1746.4 1938.66L1787.97 1962.66L1787.97 2010.66L1746.4 2034.66L1704.83 2010.66L1704.83 1962.66zM1704.83 2010.66L1746.4 2034.66L1746.4 2082.66L1704.83 2106.66L1663.26 2082.66L1663.26 2034.66zM1787.97 138.66L1829.54 162.66L1829.54 210.66L1787.97 234.66L1746.4 210.66L1746.4 162.66zM1829.54 210.66L1871.11 234.66L1871.11 282.66L1829.54 306.66L1787.97 282.66L1787.97 234.66zM1787.97 426.66L1829.54 450.66L1829.54 498.66L1787.97 522.66L1746.4 498.66L1746.4 450.66zM1829.54 642.66L1871.11 666.66L1871.11 714.66L1829.54 738.66L1787.97 714.66L1787.97 666.66zM1829.54 930.66L1871.11 954.66L1871.11 1002.66L1829.54 1026.66L1787.97 1002.66L1787.97 954.66zM1787.97 1002.66L1829.54 1026.66L1829.54 1074.66L1787.97 1098.66L1746.4 1074.66L1746.4 1026.66zM1787.97 1290.66L1829.54 1314.66L1829.54 1362.66L1787.97 1386.66L1746.4 1362.66L1746.4 1314.66zM1829.54 1362.66L1871.11 1386.66L1871.11 1434.66L1829.54 1458.66L1787.97 1434.66L1787.97 1386.66zM1787.97 1578.66L1829.54 1602.66L1829.54 1650.66L1787.97 1674.66L1746.4 1650.66L1746.4 1602.66zM1829.54 1794.66L1871.11 1818.66L1871.11 1866.66L1829.54 1890.66L1787.97 1866.66L1787.97 1818.66zM1829.54 1938.66L1871.11 1962.66L1871.11 2010.66L1829.54 2034.66L1787.97 2010.66L1787.97 1962.66zM1787.97 2010.66L1829.54 2034.66L1829.54 2082.66L1787.97 2106.66L1746.4 2082.66L1746.4 2034.66zM1871.11 -5.34L1912.68 18.66L1912.68 66.66L1871.11 90.66L1829.54 66.66L1829.54 18.66zM1912.68 66.66L1954.25 90.66L1954.25 138.66L1912.68 162.66L1871.11 138.66L1871.11 90.66zM1912.68 210.66L1954.25 234.66L1954.25 282.66L1912.68 306.66L1871.11 282.66L1871.11 234.66zM1871.11 426.66L1912.68 450.66L1912.68 498.66L1871.11 522.66L1829.54 498.66L1829.54 450.66zM1912.68 498.66L1954.25 522.66L1954.25 570.66L1912.68 594.66L1871.11 570.66L1871.11 522.66zM1871.11 570.66L1912.68 594.66L1912.68 642.66L1871.11 666.66L1829.54 642.66L1829.54 594.66zM1912.68 642.66L1954.25 666.66L1954.25 714.66L1912.68 738.66L1871.11 714.66L1871.11 666.66zM1871.11 714.66L1912.68 738.66L1912.68 786.66L1871.11 810.66L1829.54 786.66L1829.54 738.66zM1912.68 786.66L1954.25 810.66L1954.25 858.66L1912.68 882.66L1871.11 858.66L1871.11 810.66zM1912.68 930.66L1954.25 954.66L1954.25 1002.66L1912.68 1026.66L1871.11 1002.66L1871.11 954.66zM1871.11 1002.66L1912.68 1026.66L1912.68 1074.66L1871.11 1098.66L1829.54 1074.66L1829.54 1026.66zM1871.11 1146.66L1912.68 1170.66L1912.68 1218.66L1871.11 1242.66L1829.54 1218.66L1829.54 1170.66zM1871.11 1290.66L1912.68 1314.66L1912.68 1362.66L1871.11 1386.66L1829.54 1362.66L1829.54 1314.66zM1912.68 1362.66L1954.25 1386.66L1954.25 1434.66L1912.68 1458.66L1871.11 1434.66L1871.11 1386.66zM1912.68 1506.66L1954.25 1530.66L1954.25 1578.66L1912.68 1602.66L1871.11 1578.66L1871.11 1530.66zM1871.11 1578.66L1912.68 1602.66L1912.68 1650.66L1871.11 1674.66L1829.54 1650.66L1829.54 1602.66zM1912.68 1794.66L1954.25 1818.66L1954.25 1866.66L1912.68 1890.66L1871.11 1866.66L1871.11 1818.66zM1912.68 1938.66L1954.25 1962.66L1954.25 2010.66L1912.68 2034.66L1871.11 2010.66L1871.11 1962.66zM1871.11 2010.66L1912.68 2034.66L1912.68 2082.66L1871.11 2106.66L1829.54 2082.66L1829.54 2034.66zM1954.25 -5.34L1995.82 18.66L1995.82 66.66L1954.25 90.66L1912.68 66.66L1912.68 18.66zM1995.82 66.66L2037.39 90.66L2037.39 138.66L1995.82 162.66L1954.25 138.66L1954.25 90.66zM1954.25 138.66L1995.82 162.66L1995.82 210.66L1954.25 234.66L1912.68 210.66L1912.68 162.66zM1995.82 210.66L2037.39 234.66L2037.39 282.66L1995.82 306.66L1954.25 282.66L1954.25 234.66zM1995.82 354.66L2037.39 378.66L2037.39 426.66L1995.82 450.66L1954.25 426.66L1954.25 378.66zM1954.25 426.66L1995.82 450.66L1995.82 498.66L1954.25 522.66L1912.68 498.66L1912.68 450.66zM1954.25 570.66L1995.82 594.66L1995.82 642.66L1954.25 666.66L1912.68 642.66L1912.68 594.66zM1995.82 642.66L2037.39 666.66L2037.39 714.66L1995.82 738.66L1954.25 714.66L1954.25 666.66zM1995.82 786.66L2037.39 810.66L2037.39 858.66L1995.82 882.66L1954.25 858.66L1954.25 810.66zM1954.25 858.66L1995.82 882.66L1995.82 930.66L1954.25 954.66L1912.68 930.66L1912.68 882.66zM1995.82 930.66L2037.39 954.66L2037.39 1002.66L1995.82 1026.66L1954.25 1002.66L1954.25 954.66zM1954.25 1002.66L1995.82 1026.66L1995.82 1074.66L1954.25 1098.66L1912.68 1074.66L1912.68 1026.66zM1995.82 1074.66L2037.39 1098.66L2037.39 1146.66L1995.82 1170.66L1954.25 1146.66L1954.25 1098.66zM1954.25 1722.66L1995.82 1746.66L1995.82 1794.66L1954.25 1818.66L1912.68 1794.66L1912.68 1746.66zM1995.82 1794.66L2037.39 1818.66L2037.39 1866.66L1995.82 1890.66L1954.25 1866.66L1954.25 1818.66zM1954.25 1866.66L1995.82 1890.66L1995.82 1938.66L1954.25 1962.66L1912.68 1938.66L1912.68 1890.66zM2037.39 -5.34L2078.96 18.66L2078.96 66.66L2037.39 90.66L1995.82 66.66L1995.82 18.66zM2078.96 354.66L2120.53 378.66L2120.53 426.66L2078.96 450.66L2037.39 426.66L2037.39 378.66zM2037.39 570.66L2078.96 594.66L2078.96 642.66L2037.39 666.66L1995.82 642.66L1995.82 594.66zM2078.96 642.66L2120.53 666.66L2120.53 714.66L2078.96 738.66L2037.39 714.66L2037.39 666.66zM2037.39 714.66L2078.96 738.66L2078.96 786.66L2037.39 810.66L1995.82 786.66L1995.82 738.66zM2078.96 786.66L2120.53 810.66L2120.53 858.66L2078.96 882.66L2037.39 858.66L2037.39 810.66zM2037.39 1002.66L2078.96 1026.66L2078.96 1074.66L2037.39 1098.66L1995.82 1074.66L1995.82 1026.66zM2037.39 1290.66L2078.96 1314.66L2078.96 1362.66L2037.39 1386.66L1995.82 1362.66L1995.82 1314.66zM2037.39 1434.66L2078.96 1458.66L2078.96 1506.66L2037.39 1530.66L1995.82 1506.66L1995.82 1458.66zM2037.39 1722.66L2078.96 1746.66L2078.96 1794.66L2037.39 1818.66L1995.82 1794.66L1995.82 1746.66zM2078.96 1794.66L2120.53 1818.66L2120.53 1866.66L2078.96 1890.66L2037.39 1866.66L2037.39 1818.66zM2037.39 1866.66L2078.96 1890.66L2078.96 1938.66L2037.39 1962.66L1995.82 1938.66L1995.82 1890.66zM2078.96 1938.66L2120.53 1962.66L2120.53 2010.66L2078.96 2034.66L2037.39 2010.66L2037.39 1962.66zM2037.39 2010.66L2078.96 2034.66L2078.96 2082.66L2037.39 2106.66L1995.82 2082.66L1995.82 2034.66z" stroke="rgba(173, 232, 244, 1)" stroke-width="2"></path></g><defs><mask id="SvgjsMask1025"><rect width="2000" height="2000" fill="#ffffff"></rect></mask></defs></svg>