<?xml version="1.0" encoding="UTF-8"?>
<!DOCTYPE svg PUBLIC "-//W3C//DTD SVG 1.1//EN" "http://www.w3.org/Graphics/SVG/1.1/DTD/svg11.dtd">
<!-- Creator: CorelDRAW 2021.5 -->
<svg xmlns="http://www.w3.org/2000/svg" xml:space="preserve" width="7.9048mm" height="7.9048mm" version="1.1" style="shape-rendering:geometricPrecision; text-rendering:geometricPrecision; image-rendering:optimizeQuality; fill-rule:evenodd; clip-rule:evenodd"
viewBox="0 0 2.81 2.81"
 xmlns:xlink="http://www.w3.org/1999/xlink"
 xmlns:xodm="http://www.corel.com/coreldraw/odm/2003">
 <defs>
  <style type="text/css">
   <![CDATA[
    .fil2 {fill:none}
    .fil1 {fill:#EA5A5E}
    .fil0 {fill:#A8A8A7}
   ]]>
  </style>
 </defs>
 <g id="Layer_x0020_1">
  <metadata id="CorelCorpID_0Corel-Layer"/>
  <g id="_2444493188064">
   <path class="fil0" d="M0.99 1.37c0.01,0.1 0.03,0.18 0.07,0.25l0.76 -0.76 0 -0.09c-0.01,-0.12 -0.05,-0.23 -0.11,-0.3 -0.24,-0.27 -0.72,-0.08 -0.72,0.28l0 0.63zm0.11 0.31c0.01,0.01 0.03,0.03 0.04,0.04l0.67 -0.67 0 -0.09 -0.72 0.72zm0.11 0.08c0.05,0.03 0.11,0.04 0.16,0.04l0.05 0c0.2,-0.01 0.39,-0.17 0.39,-0.39l0 -0.26 -0.61 0.61z"/>
   <path class="fil0" d="M0.78 1.39c0,0.18 0.03,0.3 0.1,0.41l0.08 -0.08c-0.02,-0.05 -0.04,-0.1 -0.05,-0.16 -0.02,-0.15 0.01,-0.25 -0.08,-0.25 -0.01,0 -0.05,0 -0.05,0.07l0 0zm0.14 0.47c0.01,0.01 0.01,0.01 0.02,0.02 0.01,0.01 0.02,0.02 0.02,0.03l0.07 -0.07c-0.01,-0.01 -0.03,-0.03 -0.04,-0.05l-0.08 0.08zm0.09 0.1c0.09,0.08 0.18,0.11 0.34,0.15l0 0.23c-0.27,0 -0.33,-0.03 -0.35,0.09 0.02,0.01 -0.01,0.02 0.11,0.02l0.61 0 0 0c0.06,-0 0.04,-0.01 0.07,-0.05 -0.03,-0.1 -0.02,-0.07 -0.35,-0.07l0 -0.23c0.39,-0.09 0.58,-0.28 0.58,-0.72l0 -0c0,-0.04 -0.02,-0.07 -0.07,-0.07 -0.07,0.02 0.05,0.17 -0.14,0.46 -0.16,0.24 -0.51,0.27 -0.73,0.1l-0.08 0.08z"/>
   <polygon class="fil1" points="2.47,0.35 2.42,0.35 2.42,0.37 2.4,0.37 2.4,0.39 2.38,0.39 2.38,0.42 2.35,0.42 2.35,0.44 2.33,0.44 2.33,0.46 2.31,0.46 2.31,0.49 2.28,0.49 2.28,0.51 2.26,0.51 2.26,0.53 2.24,0.53 2.24,0.56 2.21,0.56 2.21,0.58 2.19,0.58 2.19,0.6 2.17,0.6 2.17,0.63 2.15,0.63 2.15,0.65 2.12,0.65 2.12,0.67 2.1,0.67 2.1,0.7 2.08,0.7 2.08,0.72 2.05,0.72 2.05,0.74 2.03,0.74 2.03,0.76 2.01,0.76 2.01,0.79 1.98,0.79 1.98,0.81 1.96,0.81 1.96,0.83 1.94,0.83 1.94,0.86 1.91,0.86 1.91,0.88 1.89,0.88 1.89,0.9 1.87,0.9 1.87,0.93 1.84,0.93 1.84,0.95 1.82,0.95 1.82,0.97 1.8,0.97 1.8,1 1.78,1 1.78,1.02 1.75,1.02 1.75,1.04 1.73,1.04 1.73,1.07 1.71,1.07 1.71,1.09 1.68,1.09 1.68,1.11 1.66,1.11 1.66,1.14 1.64,1.14 1.64,1.16 1.61,1.16 1.61,1.18 1.59,1.18 1.59,1.2 1.57,1.2 1.57,1.23 1.54,1.23 1.54,1.25 1.52,1.25 1.52,1.27 1.5,1.27 1.5,1.3 1.47,1.3 1.47,1.32 1.45,1.32 1.45,1.34 1.43,1.34 1.43,1.37 1.4,1.37 1.4,1.39 1.38,1.39 1.38,1.41 1.36,1.41 1.36,1.44 1.34,1.44 1.34,1.46 1.31,1.46 1.31,1.48 1.29,1.48 1.29,1.51 1.27,1.51 1.27,1.53 1.24,1.53 1.24,1.55 1.22,1.55 1.22,1.57 1.2,1.57 1.2,1.6 1.17,1.6 1.17,1.62 1.15,1.62 1.15,1.64 1.13,1.64 1.13,1.67 1.1,1.67 1.1,1.69 1.08,1.69 1.08,1.71 1.06,1.71 1.06,1.74 1.03,1.74 1.03,1.76 1.01,1.76 1.01,1.78 0.99,1.78 0.99,1.81 0.96,1.81 0.96,1.83 0.94,1.83 0.94,1.85 0.92,1.85 0.92,1.88 0.9,1.88 0.9,1.9 0.87,1.9 0.87,1.92 0.85,1.92 0.85,1.95 0.83,1.95 0.83,1.97 0.8,1.97 0.8,1.99 0.78,1.99 0.78,2.01 0.76,2.01 0.76,2.04 0.73,2.04 0.73,2.06 0.71,2.06 0.71,2.08 0.69,2.08 0.69,2.11 0.66,2.11 0.66,2.13 0.64,2.13 0.64,2.15 0.62,2.15 0.62,2.18 0.59,2.18 0.59,2.2 0.57,2.2 0.57,2.22 0.55,2.22 0.55,2.25 0.53,2.25 0.53,2.27 0.5,2.27 0.5,2.29 0.48,2.29 0.48,2.32 0.46,2.32 0.46,2.34 0.43,2.34 0.43,2.36 0.41,2.36 0.41,2.38 0.39,2.38 0.39,2.41 0.36,2.41 0.36,2.43 0.34,2.43 0.34,2.45 0.36,2.45 0.36,2.48 0.41,2.48 0.41,2.45 0.43,2.45 0.43,2.43 0.46,2.43 0.46,2.41 0.48,2.41 0.48,2.38 0.5,2.38 0.5,2.36 0.53,2.36 0.53,2.34 0.55,2.34 0.55,2.32 0.57,2.32 0.57,2.29 0.59,2.29 0.59,2.27 0.62,2.27 0.62,2.25 0.64,2.25 0.64,2.22 0.66,2.22 0.66,2.2 0.69,2.2 0.69,2.18 0.71,2.18 0.71,2.15 0.73,2.15 0.73,2.13 0.76,2.13 0.76,2.11 0.78,2.11 0.78,2.08 0.8,2.08 0.8,2.06 0.83,2.06 0.83,2.04 0.85,2.04 0.85,2.01 0.87,2.01 0.87,1.99 0.9,1.99 0.9,1.97 0.92,1.97 0.92,1.95 0.94,1.95 0.94,1.92 0.96,1.92 0.96,1.9 0.99,1.9 0.99,1.88 1.01,1.88 1.01,1.85 1.03,1.85 1.03,1.83 1.06,1.83 1.06,1.81 1.08,1.81 1.08,1.78 1.1,1.78 1.1,1.76 1.13,1.76 1.13,1.74 1.15,1.74 1.15,1.71 1.17,1.71 1.17,1.69 1.2,1.69 1.2,1.67 1.22,1.67 1.22,1.64 1.24,1.64 1.24,1.62 1.27,1.62 1.27,1.6 1.29,1.6 1.29,1.57 1.31,1.57 1.31,1.55 1.34,1.55 1.34,1.53 1.36,1.53 1.36,1.51 1.38,1.51 1.38,1.48 1.4,1.48 1.4,1.46 1.43,1.46 1.43,1.44 1.45,1.44 1.45,1.41 1.47,1.41 1.47,1.39 1.5,1.39 1.5,1.37 1.52,1.37 1.52,1.34 1.54,1.34 1.54,1.32 1.57,1.32 1.57,1.3 1.59,1.3 1.59,1.27 1.61,1.27 1.61,1.25 1.64,1.25 1.64,1.23 1.66,1.23 1.66,1.2 1.68,1.2 1.68,1.18 1.71,1.18 1.71,1.16 1.73,1.16 1.73,1.14 1.75,1.14 1.75,1.11 1.78,1.11 1.78,1.09 1.8,1.09 1.8,1.07 1.82,1.07 1.82,1.04 1.84,1.04 1.84,1.02 1.87,1.02 1.87,1 1.89,1 1.89,0.97 1.91,0.97 1.91,0.95 1.94,0.95 1.94,0.93 1.96,0.93 1.96,0.9 1.98,0.9 1.98,0.88 2.01,0.88 2.01,0.86 2.03,0.86 2.03,0.83 2.05,0.83 2.05,0.81 2.08,0.81 2.08,0.79 2.1,0.79 2.1,0.76 2.12,0.76 2.12,0.74 2.15,0.74 2.15,0.72 2.17,0.72 2.17,0.7 2.19,0.7 2.19,0.67 2.21,0.67 2.21,0.65 2.24,0.65 2.24,0.63 2.26,0.63 2.26,0.6 2.28,0.6 2.28,0.58 2.31,0.58 2.31,0.56 2.33,0.56 2.33,0.53 2.35,0.53 2.35,0.51 2.38,0.51 2.38,0.49 2.4,0.49 2.4,0.46 2.42,0.46 2.42,0.44 2.45,0.44 2.45,0.42 2.47,0.42 "/>
  </g>
  <rect class="fil2" width="2.81" height="2.81"/>
 </g>
</svg>
