<?xml version="1.0" encoding="UTF-8"?>
<!DOCTYPE svg PUBLIC "-//W3C//DTD SVG 1.1//EN" "http://www.w3.org/Graphics/SVG/1.1/DTD/svg11.dtd">
<!-- Creator: CorelDRAW 2021.5 -->
<svg xmlns="http://www.w3.org/2000/svg" xml:space="preserve" width="105.833mm" height="105.833mm" version="1.1" style="shape-rendering:geometricPrecision; text-rendering:geometricPrecision; image-rendering:optimizeQuality; fill-rule:evenodd; clip-rule:evenodd"
viewBox="0 0 1840.55 1840.55"
 xmlns:xlink="http://www.w3.org/1999/xlink"
 xmlns:xodm="http://www.corel.com/coreldraw/odm/2003">
 <defs>
  <style type="text/css">
   <![CDATA[
    .fil1 {fill:#FEFEFE}
    .fil0 {fill:url(#id0)}
   ]]>
  </style>
  <linearGradient id="id0" gradientUnits="userSpaceOnUse" x1="1579.68" y1="0" x2="260.86" y2="1840.55">
   <stop offset="0" style="stop-opacity:1; stop-color:#48CAE4"/>
   <stop offset="0.184314" style="stop-opacity:1; stop-color:#24BFDE"/>
   <stop offset="0.239216" style="stop-opacity:1; stop-color:#00B4D8"/>
   <stop offset="0.501961" style="stop-opacity:1; stop-color:#0096C7"/>
   <stop offset="0.760784" style="stop-opacity:1; stop-color:#0077B6"/>
   <stop offset="1" style="stop-opacity:1; stop-color:#023E8A"/>
  </linearGradient>
 </defs>
 <g id="Layer_x0020_1">
  <metadata id="CorelCorpID_0Corel-Layer"/>
  <rect class="fil0" width="1840.55" height="1840.55" rx="521.73" ry="521.73"/>
  <g id="_1843554289904">
   <path class="fil1" d="M1180.02 754.97c-91.46,0 -165.6,74.14 -165.6,165.6 0,91.46 74.14,165.6 165.6,165.6 91.46,0 165.6,-74.14 165.6,-165.6 0,-91.46 -74.14,-165.6 -165.6,-165.6zm0 67.66c-54.09,0 -97.93,43.85 -97.93,97.93 0,54.09 43.85,97.93 97.93,97.93 54.09,0 97.93,-43.85 97.93,-97.93 0,-54.09 -43.85,-97.93 -97.93,-97.93z"/>
   <path class="fil1" d="M830.69 754.97c-91.46,0 -165.6,74.14 -165.6,165.6 0,91.46 74.14,165.6 165.6,165.6 91.46,0 165.6,-74.14 165.6,-165.6 0,-91.46 -74.14,-165.6 -165.6,-165.6zm0 67.66c-54.09,0 -97.93,43.85 -97.93,97.93 0,54.09 43.85,97.93 97.93,97.93 54.09,0 97.93,-43.85 97.93,-97.93 0,-54.09 -43.85,-97.93 -97.93,-97.93z"/>
   <path class="fil1" d="M1377.58 823.42c-36.22,-12.12 -53.16,-34.64 -50.81,-67.56 91.56,-0.67 183.12,-1.34 274.68,-2.02 28.55,9.44 41.79,31.88 39.72,67.32 -129.71,130.16 -194.57,195.24 -194.57,195.24 113.11,-0.45 169.66,-0.67 169.66,-0.67 29.24,8.02 43.15,30.69 41.74,68 -177.98,0.54 -266.96,0.8 -266.96,0.8 -25.68,-6.19 -41.29,-27.27 -46.84,-63.23 131.92,-131.92 197.88,-197.88 197.88,-197.88 -109.67,0 -164.51,0 -164.51,0z"/>
   <path class="fil1" d="M182.44 1087.18c0.22,-111.32 0.45,-222.63 0.67,-333.95 27.35,3.57 47.77,12.77 61.27,27.6 54.43,-42.19 119.35,-34.16 171.01,17.51 85.94,-85.94 235.65,-42.19 235.65,100.33 0.9,65.53 0.9,105.24 0,186.49 -41.55,4.45 -65.57,-12.83 -72.04,-51.84 0,-67.33 0,-119.85 0,-157.55 0,-75.28 -127.25,-75.82 -127.25,0 0.45,137.8 0.67,206.7 0.67,206.7 -37.67,4.37 -61.23,-9.77 -70.7,-42.42 0,-109.52 0,-164.28 0,-164.28 0,-69.32 -132.64,-72.57 -132.64,0 0.45,114.91 0.67,172.36 0.67,172.36 -10.84,27.6 -33.28,40.62 -67.33,39.05z"/>
  </g>
 </g>
</svg>
