<?xml version="1.0" encoding="UTF-8"?>
<!DOCTYPE svg PUBLIC "-//W3C//DTD SVG 1.1//EN" "http://www.w3.org/Graphics/SVG/1.1/DTD/svg11.dtd">
<!-- Creator: CorelDRAW 2021.5 -->
<svg xmlns="http://www.w3.org/2000/svg" xml:space="preserve" width="84.8529mm" height="19.2099mm" version="1.1" style="shape-rendering:geometricPrecision; text-rendering:geometricPrecision; image-rendering:optimizeQuality; fill-rule:evenodd; clip-rule:evenodd"
viewBox="0 0 844.19 191.12"
 xmlns:xlink="http://www.w3.org/1999/xlink"
 xmlns:xodm="http://www.corel.com/coreldraw/odm/2003">
 <defs>
  <style type="text/css">
   <![CDATA[
    .fil0 {fill:url(#id0)}
   ]]>
  </style>
  <linearGradient id="id0" gradientUnits="userSpaceOnUse" x1="444.95" y1="-45.35" x2="399.24" y2="236.47">
   <stop offset="0" style="stop-opacity:1; stop-color:#48CAE4"/>
   <stop offset="0.184314" style="stop-opacity:1; stop-color:#24BFDE"/>
   <stop offset="0.239216" style="stop-opacity:1; stop-color:#00B4D8"/>
   <stop offset="0.501961" style="stop-opacity:1; stop-color:#0096C7"/>
   <stop offset="0.760784" style="stop-opacity:1; stop-color:#0077B6"/>
   <stop offset="1" style="stop-opacity:1; stop-color:#023E8A"/>
  </linearGradient>
 </defs>
 <g id="Layer_x0020_1">
  <metadata id="CorelCorpID_0Corel-Layer"/>
  <path class="fil0" d="M570.68 1c-52.32,0 -94.73,42.41 -94.73,94.73 0,52.32 42.41,94.73 94.73,94.73 52.32,0 94.73,-42.41 94.73,-94.73 0,-52.32 -42.41,-94.73 -94.73,-94.73zm0 38.71c-30.94,0 -56.02,25.08 -56.02,56.02 0,30.94 25.08,56.02 56.02,56.02 30.94,0 56.02,-25.08 56.02,-56.02 0,-30.94 -25.08,-56.02 -56.02,-56.02zm-199.84 -38.71c-52.32,0 -94.73,42.41 -94.73,94.73 0,52.32 42.41,94.73 94.73,94.73 52.32,0 94.73,-42.41 94.73,-94.73 0,-52.32 -42.41,-94.73 -94.73,-94.73zm0 38.71c-30.94,0 -56.02,25.08 -56.02,56.02 0,30.94 25.08,56.02 56.02,56.02 30.94,0 56.02,-25.08 56.02,-56.02 0,-30.94 -25.08,-56.02 -56.02,-56.02zm312.86 0.45c-20.72,-6.93 -30.41,-19.82 -29.06,-38.65 52.38,-0.38 104.76,-0.77 157.14,-1.16 16.33,5.4 23.91,18.24 22.72,38.51 -74.2,74.46 -111.31,111.69 -111.31,111.69 64.7,-0.26 97.06,-0.39 97.06,-0.39 16.72,4.59 24.69,17.55 23.88,38.9 -101.81,0.31 -152.72,0.46 -152.72,0.46 -14.69,-3.54 -23.62,-15.6 -26.79,-36.17 75.47,-75.47 113.2,-113.2 113.2,-113.2 -62.74,0 -94.11,0 -94.11,0zm-683.71 150.89c0.13,-63.68 0.26,-127.36 0.39,-191.04 15.65,2.04 27.33,7.3 35.05,15.79 31.14,-24.13 68.27,-19.54 97.83,10.01 49.17,-49.17 134.81,-24.14 134.81,57.4 0.52,37.49 0.52,60.21 0,106.68 -23.77,2.54 -37.51,-7.34 -41.21,-29.66 0,-38.52 0,-68.56 0,-90.13 0,-43.07 -72.8,-43.38 -72.8,0 0.26,78.83 0.39,118.25 0.39,118.25 -21.55,2.5 -35.03,-5.59 -40.44,-24.27 0,-62.65 0,-93.98 0,-93.98 0,-39.66 -75.88,-41.51 -75.88,0 0.26,65.73 0.39,98.6 0.39,98.6 -6.2,15.79 -19.04,23.24 -38.52,22.34z"/>
 </g>
</svg>
