<?xml version="1.0" encoding="UTF-8"?>
<!DOCTYPE svg PUBLIC "-//W3C//DTD SVG 1.1//EN" "http://www.w3.org/Graphics/SVG/1.1/DTD/svg11.dtd">
<!-- Creator: CorelDRAW 2021.5 -->
<svg xmlns="http://www.w3.org/2000/svg" xml:space="preserve" width="4.2081mm" height="4.3433mm" version="1.1" style="shape-rendering:geometricPrecision; text-rendering:geometricPrecision; image-rendering:optimizeQuality; fill-rule:evenodd; clip-rule:evenodd"
viewBox="0 0 0.85 0.88"
 xmlns:xlink="http://www.w3.org/1999/xlink"
 xmlns:xodm="http://www.corel.com/coreldraw/odm/2003">
 <defs>
  <style type="text/css">
   <![CDATA[
    .str0 {stroke:#FF5C5C;stroke-width:0.05;stroke-miterlimit:22.9256}
    .fil0 {fill:none}
    .fil1 {fill:#FF5C5C}
   ]]>
  </style>
 </defs>
 <g id="Layer_x0020_1">
  <metadata id="CorelCorpID_0Corel-Layer"/>
  <g id="_2480289503488">
   <line class="fil0 str0" x1="0.42" y1="0.75" x2="0.42" y2= "0.85" />
   <line class="fil0 str0" x1="0.24" y1="0.85" x2="0.6" y2= "0.85" />
   <path class="fil1 str0" d="M0.65 0.36l0 0.17c0,0.12 -0.1,0.23 -0.23,0.23 -0.05,0 -0.09,-0.01 -0.13,-0.04l0.35 -0.35z"/>
   <path class="fil1" d="M0.64 0.2c0,0.02 0.01,0.03 0.01,0.05l0 0.02 -0.4 0.4c-0.01,-0.01 -0.02,-0.03 -0.03,-0.05l0.42 -0.42z"/>
   <path class="fil1 str0" d="M0.42 0.03c0.08,0 0.15,0.04 0.19,0.11l-0.42 0.42c-0,-0.01 -0,-0.02 -0,-0.03l0 -0.27c0,-0.12 0.1,-0.23 0.23,-0.23z"/>
   <rect class="fil1" transform="matrix(0.906338 0.906338 -0.906338 0.906338 0.824837 0.0159532)" width="0.04" height="0.92" rx="0.08" ry="0.08"/>
  </g>
 </g>
</svg>
