<?xml version="1.0" encoding="UTF-8"?>
<!DOCTYPE svg PUBLIC "-//W3C//DTD SVG 1.1//EN" "http://www.w3.org/Graphics/SVG/1.1/DTD/svg11.dtd">
<!-- Creator: CorelDRAW 2021.5 -->
<svg xmlns="http://www.w3.org/2000/svg" xml:space="preserve" width="7.9048mm" height="7.9048mm" version="1.1" style="shape-rendering:geometricPrecision; text-rendering:geometricPrecision; image-rendering:optimizeQuality; fill-rule:evenodd; clip-rule:evenodd"
viewBox="0 0 2.72 2.72"
 xmlns:xlink="http://www.w3.org/1999/xlink"
 xmlns:xodm="http://www.corel.com/coreldraw/odm/2003">
 <defs>
  <style type="text/css">
   <![CDATA[
    .fil1 {fill:none}
    .fil0 {fill:#A8A8A8}
   ]]>
  </style>
 </defs>
 <g id="Layer_x0020_1">
  <metadata id="CorelCorpID_0Corel-Layer"/>
  <g id="_2480416928608">
   <circle class="fil0" cx="0.98" cy="1.08" r="0.27"/>
   <circle class="fil0" cx="1.7" cy="1.22" r="0.27"/>
   <path class="fil0" d="M0.97 2.06c0.13,0 0.27,-0 0.4,-0 0.08,-0.04 0.12,-0.11 0.13,-0.21 0.01,-0.19 -0.17,-0.3 -0.53,-0.33 -0.37,0.04 -0.54,0.15 -0.53,0.33 0.01,0.1 0.06,0.17 0.13,0.21 0.13,0 0.27,0 0.4,0z"/>
   <path class="fil0" d="M1.75 2.06c0.11,0 0.22,-0 0.33,-0 0.06,-0.03 0.1,-0.09 0.11,-0.17 0.01,-0.15 -0.14,-0.24 -0.44,-0.27 -0.08,0.01 -0.16,0.02 -0.22,0.04 0.04,0.06 0.06,0.13 0.06,0.21 0,0.07 -0.02,0.14 -0.06,0.2 0.07,0 0.14,0 0.21,0z"/>
  </g>
  <rect class="fil1" width="2.72" height="2.72"/>
 </g>
</svg>
