<?xml version="1.0" encoding="UTF-8"?>
<!DOCTYPE svg PUBLIC "-//W3C//DTD SVG 1.1//EN" "http://www.w3.org/Graphics/SVG/1.1/DTD/svg11.dtd">
<!-- Creator: CorelDRAW 2021.5 -->
<svg xmlns="http://www.w3.org/2000/svg" xml:space="preserve" width="7.9048mm" height="7.9048mm" version="1.1" style="shape-rendering:geometricPrecision; text-rendering:geometricPrecision; image-rendering:optimizeQuality; fill-rule:evenodd; clip-rule:evenodd"
viewBox="0 0 2.7 2.7"
 xmlns:xlink="http://www.w3.org/1999/xlink"
 xmlns:xodm="http://www.corel.com/coreldraw/odm/2003">
 <defs>
  <style type="text/css">
   <![CDATA[
    .fil1 {fill:none}
    .fil0 {fill:#A8A8A8}
   ]]>
  </style>
 </defs>
 <g id="Layer_x0020_1">
  <metadata id="CorelCorpID_0Corel-Layer"/>
  <g id="_2480321212752">
   <path class="fil0" d="M1.29 0.79c0.1,0 0.2,0.02 0.29,0.07 0,0.06 0.05,0.11 0.12,0.11 0.01,0 0.03,-0 0.04,-0.01 0.01,0.01 0.02,0.02 0.02,0.02 -0.01,0.02 -0.02,0.04 -0.02,0.07 0,0.06 0.05,0.12 0.12,0.12 0.01,0 0.02,-0 0.03,-0 0.04,0.08 0.06,0.17 0.06,0.26 0,0.35 -0.29,0.64 -0.64,0.64 -0.35,0 -0.64,-0.29 -0.64,-0.64 0,-0.35 0.29,-0.64 0.64,-0.64zm0.01 0.86c-0.17,-0 -0.23,-0.16 -0.28,-0.11 -0.05,0.05 0.12,0.18 0.27,0.18 0.15,0 0.32,-0.13 0.27,-0.18 -0.04,-0.04 -0.11,0.11 -0.27,0.11zm-0.18 -0.37c0.04,0 0.06,0.03 0.06,0.06 0,0.04 -0.03,0.06 -0.06,0.06 -0.04,0 -0.06,-0.03 -0.06,-0.06 0,-0.04 0.03,-0.06 0.06,-0.06zm0.34 0c0.04,0 0.06,0.03 0.06,0.06 0,0.04 -0.03,0.06 -0.06,0.06 -0.04,0 -0.06,-0.03 -0.06,-0.06 0,-0.04 0.03,-0.06 0.06,-0.06z"/>
   <polygon class="fil0" points="1.82,0.65 1.9,0.65 1.9,0.82 2.08,0.82 2.08,0.91 1.9,0.91 1.9,1.08 1.82,1.08 1.82,0.91 1.64,0.91 1.64,0.82 1.82,0.82 "/>
  </g>
  <rect class="fil1" width="2.7" height="2.7"/>
 </g>
</svg>
