<?xml version="1.0" encoding="UTF-8"?>
<!DOCTYPE svg PUBLIC "-//W3C//DTD SVG 1.1//EN" "http://www.w3.org/Graphics/SVG/1.1/DTD/svg11.dtd">
<!-- Creator: CorelDRAW 2021.5 -->
<svg xmlns="http://www.w3.org/2000/svg" xml:space="preserve" width="17.6676mm" height="7.9048mm" version="1.1" style="shape-rendering:geometricPrecision; text-rendering:geometricPrecision; image-rendering:optimizeQuality; fill-rule:evenodd; clip-rule:evenodd"
viewBox="0 0 13.47 6.03"
 xmlns:xlink="http://www.w3.org/1999/xlink"
 xmlns:xodm="http://www.corel.com/coreldraw/odm/2003">
 <defs>
  <style type="text/css">
   <![CDATA[
    .fil1 {fill:none}
    .fil0 {fill:#A8A8A8}
   ]]>
  </style>
 </defs>
 <g id="Layer_x0020_1">
  <metadata id="CorelCorpID_0Corel-Layer"/>
  <path class="fil0" d="M3.46 1.45l2.53 0c0.19,0 0.35,0.16 0.35,0.35l0 2.44c0,0.19 -0.16,0.35 -0.35,0.35l-2.53 0c-0.19,0 -0.35,-0.16 -0.35,-0.35l0 -2.44c0,-0.19 0.16,-0.35 0.35,-0.35zm0.97 0.93l-0.36 0 0 1.29 0.36 0 0 -1.29zm0.93 0l-0.36 0 0 1.29 0.36 0 0 -1.29z"/>
  <path class="fil0" d="M7.33 1.45l2.53 0c0.19,0 0.35,0.16 0.35,0.35l0 2.44c0,0.19 -0.16,0.35 -0.35,0.35l-2.53 0c-0.19,0 -0.35,-0.16 -0.35,-0.35l0 -2.44c0,-0.19 0.16,-0.35 0.35,-0.35zm0.62 0.93l1.29 0 0 1.29 -1.29 0 0 -1.29z"/>
  <rect class="fil1" width="13.47" height="6.03"/>
 </g>
</svg>
