<?xml version="1.0" encoding="UTF-8"?>
<!DOCTYPE svg PUBLIC "-//W3C//DTD SVG 1.1//EN" "http://www.w3.org/Graphics/SVG/1.1/DTD/svg11.dtd">
<!-- Creator: CorelDRAW 2021.5 -->
<svg xmlns="http://www.w3.org/2000/svg" xml:space="preserve" width="7.9048mm" height="7.9048mm" version="1.1" style="shape-rendering:geometricPrecision; text-rendering:geometricPrecision; image-rendering:optimizeQuality; fill-rule:evenodd; clip-rule:evenodd"
viewBox="0 0 2.74 2.74"
 xmlns:xlink="http://www.w3.org/1999/xlink"
 xmlns:xodm="http://www.corel.com/coreldraw/odm/2003">
 <defs>
  <style type="text/css">
   <![CDATA[
    .str0 {stroke:#A8A8A8;stroke-width:0.12;stroke-miterlimit:22.9256}
    .fil0 {fill:none}
    .fil1 {fill:#A8A8A8}
   ]]>
  </style>
 </defs>
 <g id="Layer_x0020_1">
  <metadata id="CorelCorpID_0Corel-Layer"/>
  <g id="_2480210557360">
   <path class="fil0 str0" d="M1.37 2.13c-0.47,-0.26 -0.67,-0.66 -0.63,-1.19 0.22,0.01 0.43,-0.11 0.63,-0.34 0.2,0.23 0.41,0.34 0.63,0.34 0.05,0.53 -0.16,0.93 -0.63,1.19z"/>
   <path class="fil1" d="M1.37 2.13l-0 -0 0 -0.76 0.6 0c-0.07,0.32 -0.27,0.58 -0.6,0.76zm-0.61 -0.76c-0.03,-0.13 -0.04,-0.27 -0.02,-0.43 0.22,0.01 0.43,-0.11 0.63,-0.34l0 0.76 -0.6 0z"/>
  </g>
  <rect class="fil0" width="2.74" height="2.74"/>
 </g>
</svg>
