<?xml version="1.0" encoding="UTF-8"?>
<!DOCTYPE svg PUBLIC "-//W3C//DTD SVG 1.1//EN" "http://www.w3.org/Graphics/SVG/1.1/DTD/svg11.dtd">
<!-- Creator: CorelDRAW 2021.5 -->
<svg xmlns="http://www.w3.org/2000/svg" xml:space="preserve" width="7.9048mm" height="7.9048mm" version="1.1" style="shape-rendering:geometricPrecision; text-rendering:geometricPrecision; image-rendering:optimizeQuality; fill-rule:evenodd; clip-rule:evenodd"
viewBox="0 0 2.72 2.72"
 xmlns:xlink="http://www.w3.org/1999/xlink"
 xmlns:xodm="http://www.corel.com/coreldraw/odm/2003">
 <defs>
  <style type="text/css">
   <![CDATA[
    .fil1 {fill:none}
    .fil0 {fill:#23D959}
   ]]>
  </style>
 </defs>
 <g id="Layer_x0020_1">
  <metadata id="CorelCorpID_0Corel-Layer"/>
  <path class="fil0" d="M0.64 0.67l1.44 0c0.12,0 0.22,0.1 0.22,0.22l0 0.95c0,0.12 -0.1,0.22 -0.22,0.22l-1.44 0c-0.12,0 -0.22,-0.1 -0.22,-0.22l0 -0.95c0,-0.12 0.1,-0.22 0.22,-0.22zm1.03 0.61l-0.08 0.08 -0.16 -0.16 0 0.46 -0.12 0 0 -0.45 -0.15 0.15 -0.08 -0.08 0.21 -0.21 0.08 -0.08 0.08 0.08 0 0 0.21 0.21z"/>
  <rect class="fil1" width="2.72" height="2.72"/>
 </g>
</svg>
