<?xml version="1.0" encoding="UTF-8"?>
<!DOCTYPE svg PUBLIC "-//W3C//DTD SVG 1.1//EN" "http://www.w3.org/Graphics/SVG/1.1/DTD/svg11.dtd">
<!-- Creator: CorelDRAW 2021.5 -->
<svg xmlns="http://www.w3.org/2000/svg" xml:space="preserve" width="7.9048mm" height="7.9048mm" version="1.1" style="shape-rendering:geometricPrecision; text-rendering:geometricPrecision; image-rendering:optimizeQuality; fill-rule:evenodd; clip-rule:evenodd"
viewBox="0 0 2.74 2.74"
 xmlns:xlink="http://www.w3.org/1999/xlink"
 xmlns:xodm="http://www.corel.com/coreldraw/odm/2003">
 <defs>
  <style type="text/css">
   <![CDATA[
    .str0 {stroke:#A8A8A8;stroke-width:0.12;stroke-linecap:round;stroke-miterlimit:22.9256}
    .fil0 {fill:none}
    .fil1 {fill:#A8A8A8}
   ]]>
  </style>
 </defs>
 <g id="Layer_x0020_1">
  <metadata id="CorelCorpID_0Corel-Layer"/>
  <g id="_2480427047072">
   <path class="fil0 str0" d="M1.01 1.99l-0.18 0c-0.11,0 -0.2,-0.09 -0.2,-0.2l0 -0.74c0,-0.11 0.09,-0.2 0.2,-0.2l1.08 0c0.11,0 0.2,0.09 0.2,0.2l0 0.59"/>
   <path class="fil1" d="M2 1.83l-0.53 0c-0.02,0 -0.04,0.01 -0.05,0.02 -0.28,0.09 -0.28,0.18 0,0.28 0.01,0.01 0.03,0.02 0.05,0.02l0.53 0c0.05,0 0.09,-0.04 0.09,-0.09l0 -0.13c0,-0.05 -0.04,-0.09 -0.09,-0.09z"/>
  </g>
  <rect class="fil0" width="2.74" height="2.74"/>
 </g>
</svg>
